<mxfile host="app.diagrams.net" agent="Mozilla/5.0 (X11; Linux x86_64) AppleWebKit/537.36 (KHTML, like Gecko) Chrome/129.0.0.0 Safari/537.36" version="24.7.16" pages="2">
  <diagram name="Page-1" id="03018318-947c-dd8e-b7a3-06fadd420f32">
    <mxGraphModel dx="1408" dy="748" grid="1" gridSize="10" guides="1" tooltips="1" connect="1" arrows="1" fold="1" page="1" pageScale="1" pageWidth="1100" pageHeight="850" background="none" math="0" shadow="0">
      <root>
        <mxCell id="0" />
        <mxCell id="1" parent="0" />
        <mxCell id="677b7b8949515195-1" value="" style="whiteSpace=wrap;html=1;rounded=0;shadow=0;labelBackgroundColor=none;strokeColor=#000000;strokeWidth=1;fillColor=none;fontFamily=Verdana;fontSize=12;fontColor=#000000;align=center;comic=1;" parent="1" vertex="1">
          <mxGeometry x="20" y="20" width="1060" height="810" as="geometry" />
        </mxCell>
        <mxCell id="677b7b8949515195-2" value="LOGO" style="whiteSpace=wrap;html=1;rounded=0;shadow=0;labelBackgroundColor=none;strokeWidth=1;fontFamily=Verdana;fontSize=28;align=center;comic=1;" parent="1" vertex="1">
          <mxGeometry x="40" y="60" width="190" height="50" as="geometry" />
        </mxCell>
        <mxCell id="677b7b8949515195-3" value="Search" style="strokeWidth=1;shadow=0;dashed=0;align=center;html=1;shape=mxgraph.mockup.forms.searchBox;strokeColor=#999999;mainText=;strokeColor2=#008cff;fontColor=#666666;fontSize=17;align=left;spacingLeft=3;rounded=0;labelBackgroundColor=none;comic=1;" parent="1" vertex="1">
          <mxGeometry x="840" y="95" width="220" height="30" as="geometry" />
        </mxCell>
        <mxCell id="677b7b8949515195-4" value="Topic 1" style="text;html=1;points=[];align=left;verticalAlign=top;spacingTop=-4;fontSize=14;fontFamily=Verdana" parent="1" vertex="1">
          <mxGeometry x="780" y="40" width="60" height="20" as="geometry" />
        </mxCell>
        <mxCell id="677b7b8949515195-5" value="Topic 2" style="text;html=1;points=[];align=left;verticalAlign=top;spacingTop=-4;fontSize=14;fontFamily=Verdana" parent="1" vertex="1">
          <mxGeometry x="860" y="40" width="60" height="20" as="geometry" />
        </mxCell>
        <mxCell id="677b7b8949515195-6" value="Topic 3" style="text;html=1;points=[];align=left;verticalAlign=top;spacingTop=-4;fontSize=14;fontFamily=Verdana" parent="1" vertex="1">
          <mxGeometry x="930" y="40" width="60" height="20" as="geometry" />
        </mxCell>
        <mxCell id="677b7b8949515195-7" value="Topic 4" style="text;html=1;points=[];align=left;verticalAlign=top;spacingTop=-4;fontSize=14;fontFamily=Verdana" parent="1" vertex="1">
          <mxGeometry x="1000" y="40" width="60" height="20" as="geometry" />
        </mxCell>
        <mxCell id="677b7b8949515195-8" value="" style="whiteSpace=wrap;html=1;rounded=0;shadow=0;labelBackgroundColor=none;strokeWidth=1;fillColor=none;fontFamily=Verdana;fontSize=12;align=center;comic=1;" parent="1" vertex="1">
          <mxGeometry x="30" y="230" width="200" height="590" as="geometry" />
        </mxCell>
        <mxCell id="677b7b8949515195-9" value="" style="line;strokeWidth=1;html=1;rounded=0;shadow=0;labelBackgroundColor=none;fillColor=none;fontFamily=Verdana;fontSize=14;fontColor=#000000;align=center;comic=1;" parent="1" vertex="1">
          <mxGeometry x="20" y="140" width="1060" height="10" as="geometry" />
        </mxCell>
        <mxCell id="677b7b8949515195-10" value="" style="whiteSpace=wrap;html=1;rounded=0;shadow=0;labelBackgroundColor=none;strokeWidth=1;fillColor=none;fontFamily=Verdana;fontSize=12;align=center;comic=1;" parent="1" vertex="1">
          <mxGeometry x="30" y="160" width="1040" height="50" as="geometry" />
        </mxCell>
        <mxCell id="677b7b8949515195-11" value="Section 1" style="text;html=1;points=[];align=left;verticalAlign=top;spacingTop=-4;fontSize=14;fontFamily=Verdana" parent="1" vertex="1">
          <mxGeometry x="330" y="175" width="60" height="20" as="geometry" />
        </mxCell>
        <mxCell id="677b7b8949515195-12" value="Section 2" style="text;html=1;points=[];align=left;verticalAlign=top;spacingTop=-4;fontSize=14;fontFamily=Verdana" parent="1" vertex="1">
          <mxGeometry x="477" y="175" width="60" height="20" as="geometry" />
        </mxCell>
        <mxCell id="677b7b8949515195-13" value="Section 3" style="text;html=1;points=[];align=left;verticalAlign=top;spacingTop=-4;fontSize=14;fontFamily=Verdana" parent="1" vertex="1">
          <mxGeometry x="623" y="175" width="60" height="20" as="geometry" />
        </mxCell>
        <mxCell id="677b7b8949515195-14" value="Section 4" style="text;html=1;points=[];align=left;verticalAlign=top;spacingTop=-4;fontSize=14;fontFamily=Verdana" parent="1" vertex="1">
          <mxGeometry x="770" y="175" width="60" height="20" as="geometry" />
        </mxCell>
        <mxCell id="677b7b8949515195-15" value="&lt;div style=&quot;text-align: justify&quot;&gt;&lt;span&gt;Lorem ipsum dolor sit amet, consectetur adipisicing elit, sed do eiusmod tempor incididunt ut labore et dolore magna aliqua. Ut enim ad minim veniam, quis nostrud exercitation ullamco laboris nisi ut aliquip ex ea commodo consequat. Duis aute irure dolor in reprehenderit in voluptate velit esse cillum dolore eu fugiat nulla pariatur. Excepteur sint occaecat cupidatat non proident, sunt in culpa qui officia deserunt mollit anim id est laborum.&lt;/span&gt;&lt;/div&gt;&lt;div style=&quot;text-align: justify&quot;&gt;&lt;span&gt;Sed ut perspiciatis unde omnis iste natus error sit voluptatem accusantium doloremque laudantium, totam rem aperiam, eaque ipsa quae ab illo inventore veritatis et quasi architecto beatae vitae dicta sunt explicabo. Nemo enim ipsam voluptatem quia voluptas sit aspernatur aut odit aut fugit, sed quia consequuntur magni dolores eos qui ratione voluptatem sequi nesciunt.&amp;nbsp;&lt;/span&gt;&lt;/div&gt;" style="whiteSpace=wrap;html=1;rounded=0;shadow=0;labelBackgroundColor=none;strokeWidth=1;fillColor=none;fontFamily=Verdana;fontSize=12;align=center;verticalAlign=top;spacing=10;comic=1;" parent="1" vertex="1">
          <mxGeometry x="250" y="640" width="580" height="180" as="geometry" />
        </mxCell>
        <mxCell id="677b7b8949515195-16" value="" style="verticalLabelPosition=bottom;shadow=0;dashed=0;align=center;html=1;verticalAlign=top;strokeWidth=1;shape=mxgraph.mockup.graphics.simpleIcon;strokeColor=#999999;rounded=0;labelBackgroundColor=none;fontFamily=Verdana;fontSize=14;fontColor=#000000;comic=1;" parent="1" vertex="1">
          <mxGeometry x="250" y="230" width="580" height="400" as="geometry" />
        </mxCell>
        <mxCell id="677b7b8949515195-25" value="" style="whiteSpace=wrap;html=1;rounded=0;shadow=0;labelBackgroundColor=none;strokeWidth=1;fillColor=none;fontFamily=Verdana;fontSize=12;align=center;comic=1;" parent="1" vertex="1">
          <mxGeometry x="840" y="230" width="230" height="400" as="geometry" />
        </mxCell>
        <mxCell id="677b7b8949515195-26" value="" style="whiteSpace=wrap;html=1;rounded=0;shadow=0;labelBackgroundColor=none;strokeWidth=1;fillColor=none;fontFamily=Verdana;fontSize=12;align=center;comic=1;" parent="1" vertex="1">
          <mxGeometry x="840" y="640" width="230" height="180" as="geometry" />
        </mxCell>
        <mxCell id="677b7b8949515195-27" value="Section 1" style="text;html=1;points=[];align=left;verticalAlign=top;spacingTop=-4;fontSize=14;fontFamily=Verdana" parent="1" vertex="1">
          <mxGeometry x="40" y="250" width="170" height="20" as="geometry" />
        </mxCell>
        <mxCell id="677b7b8949515195-28" value="Section 2" style="text;html=1;points=[];align=left;verticalAlign=top;spacingTop=-4;fontSize=14;fontFamily=Verdana" parent="1" vertex="1">
          <mxGeometry x="40" y="286" width="170" height="20" as="geometry" />
        </mxCell>
        <mxCell id="677b7b8949515195-29" value="Section 3" style="text;html=1;points=[];align=left;verticalAlign=top;spacingTop=-4;fontSize=14;fontFamily=Verdana" parent="1" vertex="1">
          <mxGeometry x="40" y="321" width="170" height="20" as="geometry" />
        </mxCell>
        <mxCell id="677b7b8949515195-30" value="Section 4" style="text;html=1;points=[];align=left;verticalAlign=top;spacingTop=-4;fontSize=14;fontFamily=Verdana" parent="1" vertex="1">
          <mxGeometry x="40" y="357" width="170" height="20" as="geometry" />
        </mxCell>
        <mxCell id="677b7b8949515195-31" value="Section 7" style="text;html=1;points=[];align=left;verticalAlign=top;spacingTop=-4;fontSize=14;fontFamily=Verdana" parent="1" vertex="1">
          <mxGeometry x="40" y="464" width="170" height="20" as="geometry" />
        </mxCell>
        <mxCell id="677b7b8949515195-32" value="Section 8" style="text;html=1;points=[];align=left;verticalAlign=top;spacingTop=-4;fontSize=14;fontFamily=Verdana" parent="1" vertex="1">
          <mxGeometry x="40" y="500" width="170" height="20" as="geometry" />
        </mxCell>
        <mxCell id="677b7b8949515195-33" value="Section 9" style="text;html=1;points=[];align=left;verticalAlign=top;spacingTop=-4;fontSize=14;fontFamily=Verdana" parent="1" vertex="1">
          <mxGeometry x="40" y="536" width="170" height="20" as="geometry" />
        </mxCell>
        <mxCell id="677b7b8949515195-34" value="Section 10" style="text;html=1;points=[];align=left;verticalAlign=top;spacingTop=-4;fontSize=14;fontFamily=Verdana" parent="1" vertex="1">
          <mxGeometry x="40" y="571" width="170" height="20" as="geometry" />
        </mxCell>
        <mxCell id="677b7b8949515195-35" value="Section 11" style="text;html=1;points=[];align=left;verticalAlign=top;spacingTop=-4;fontSize=14;fontFamily=Verdana" parent="1" vertex="1">
          <mxGeometry x="40" y="607" width="170" height="20" as="geometry" />
        </mxCell>
        <mxCell id="677b7b8949515195-36" value="Section 12" style="text;html=1;points=[];align=left;verticalAlign=top;spacingTop=-4;fontSize=14;fontFamily=Verdana" parent="1" vertex="1">
          <mxGeometry x="40" y="643" width="170" height="20" as="geometry" />
        </mxCell>
        <mxCell id="677b7b8949515195-37" value="Section 13" style="text;html=1;points=[];align=left;verticalAlign=top;spacingTop=-4;fontSize=14;fontFamily=Verdana" parent="1" vertex="1">
          <mxGeometry x="40" y="679" width="170" height="20" as="geometry" />
        </mxCell>
        <mxCell id="677b7b8949515195-38" value="Section 14" style="text;html=1;points=[];align=left;verticalAlign=top;spacingTop=-4;fontSize=14;fontFamily=Verdana" parent="1" vertex="1">
          <mxGeometry x="40" y="714" width="170" height="20" as="geometry" />
        </mxCell>
        <mxCell id="677b7b8949515195-39" value="Section 5" style="text;html=1;points=[];align=left;verticalAlign=top;spacingTop=-4;fontSize=14;fontFamily=Verdana" parent="1" vertex="1">
          <mxGeometry x="40" y="393" width="170" height="20" as="geometry" />
        </mxCell>
        <mxCell id="677b7b8949515195-40" value="Section 6" style="text;html=1;points=[];align=left;verticalAlign=top;spacingTop=-4;fontSize=14;fontFamily=Verdana" parent="1" vertex="1">
          <mxGeometry x="40" y="429" width="170" height="20" as="geometry" />
        </mxCell>
        <mxCell id="677b7b8949515195-41" value="Section 15" style="text;html=1;points=[];align=left;verticalAlign=top;spacingTop=-4;fontSize=14;fontFamily=Verdana" parent="1" vertex="1">
          <mxGeometry x="40" y="750" width="170" height="20" as="geometry" />
        </mxCell>
        <mxCell id="677b7b8949515195-42" value="External Links" style="text;html=1;points=[];align=left;verticalAlign=top;spacingTop=-4;fontSize=14;fontFamily=Verdana" parent="1" vertex="1">
          <mxGeometry x="860" y="653" width="170" height="20" as="geometry" />
        </mxCell>
        <mxCell id="677b7b8949515195-44" value="Feature 1" style="text;html=1;points=[];align=left;verticalAlign=top;spacingTop=-4;fontSize=14;fontFamily=Verdana" parent="1" vertex="1">
          <mxGeometry x="860" y="250" width="170" height="20" as="geometry" />
        </mxCell>
        <mxCell id="677b7b8949515195-45" value="Feature 2" style="text;html=1;points=[];align=left;verticalAlign=top;spacingTop=-4;fontSize=14;fontFamily=Verdana" parent="1" vertex="1">
          <mxGeometry x="860" y="285" width="170" height="20" as="geometry" />
        </mxCell>
        <mxCell id="677b7b8949515195-46" value="Feature 3" style="text;html=1;points=[];align=left;verticalAlign=top;spacingTop=-4;fontSize=14;fontFamily=Verdana" parent="1" vertex="1">
          <mxGeometry x="860" y="320" width="170" height="20" as="geometry" />
        </mxCell>
        <mxCell id="677b7b8949515195-47" value="Feature 4" style="text;html=1;points=[];align=left;verticalAlign=top;spacingTop=-4;fontSize=14;fontFamily=Verdana" parent="1" vertex="1">
          <mxGeometry x="860" y="355" width="170" height="20" as="geometry" />
        </mxCell>
        <mxCell id="677b7b8949515195-48" value="Feature 5" style="text;html=1;points=[];align=left;verticalAlign=top;spacingTop=-4;fontSize=14;fontFamily=Verdana" parent="1" vertex="1">
          <mxGeometry x="860" y="390" width="170" height="20" as="geometry" />
        </mxCell>
        <mxCell id="677b7b8949515195-49" value="Feature 6" style="text;html=1;points=[];align=left;verticalAlign=top;spacingTop=-4;fontSize=14;fontFamily=Verdana" parent="1" vertex="1">
          <mxGeometry x="860" y="425" width="170" height="20" as="geometry" />
        </mxCell>
      </root>
    </mxGraphModel>
  </diagram>
  <diagram id="0AQCHfZrvOKLCWJ2RlhU" name="Page-2">
    <mxGraphModel dx="1434" dy="715" grid="1" gridSize="10" guides="1" tooltips="1" connect="1" arrows="1" fold="1" page="1" pageScale="1" pageWidth="850" pageHeight="1100" math="0" shadow="0">
      <root>
        <mxCell id="0" />
        <mxCell id="1" parent="0" />
        <mxCell id="UyC3MJAuwIzsb8hnh3Vk-46" value="" style="group" parent="1" vertex="1" connectable="0">
          <mxGeometry x="203" y="41" width="169" height="257" as="geometry" />
        </mxCell>
        <mxCell id="UyC3MJAuwIzsb8hnh3Vk-47" value="" style="group" parent="UyC3MJAuwIzsb8hnh3Vk-46" vertex="1" connectable="0">
          <mxGeometry width="160" height="140" as="geometry" />
        </mxCell>
        <mxCell id="UyC3MJAuwIzsb8hnh3Vk-48" value="" style="group;rotation=-90;" parent="UyC3MJAuwIzsb8hnh3Vk-47" vertex="1" connectable="0">
          <mxGeometry x="10" y="-10" width="80" height="100" as="geometry" />
        </mxCell>
        <mxCell id="UyC3MJAuwIzsb8hnh3Vk-49" value="" style="group;rotation=-90;" parent="UyC3MJAuwIzsb8hnh3Vk-48" vertex="1" connectable="0">
          <mxGeometry width="30" height="50" as="geometry" />
        </mxCell>
        <mxCell id="UyC3MJAuwIzsb8hnh3Vk-50" value="" style="endArrow=none;html=1;rounded=0;" parent="UyC3MJAuwIzsb8hnh3Vk-49" edge="1">
          <mxGeometry width="50" height="50" relative="1" as="geometry">
            <mxPoint x="40" y="40" as="sourcePoint" />
            <mxPoint x="10" y="40" as="targetPoint" />
          </mxGeometry>
        </mxCell>
        <mxCell id="UyC3MJAuwIzsb8hnh3Vk-51" value="" style="endArrow=none;html=1;rounded=0;" parent="UyC3MJAuwIzsb8hnh3Vk-49" edge="1">
          <mxGeometry width="50" height="50" relative="1" as="geometry">
            <mxPoint x="40" y="40" as="sourcePoint" />
            <mxPoint x="40" y="10" as="targetPoint" />
          </mxGeometry>
        </mxCell>
        <mxCell id="UyC3MJAuwIzsb8hnh3Vk-52" value="" style="endArrow=classic;startArrow=classic;html=1;rounded=0;" parent="UyC3MJAuwIzsb8hnh3Vk-48" edge="1">
          <mxGeometry width="50" height="50" relative="1" as="geometry">
            <mxPoint x="90" y="90" as="sourcePoint" />
            <mxPoint x="40" y="40" as="targetPoint" />
          </mxGeometry>
        </mxCell>
        <mxCell id="UyC3MJAuwIzsb8hnh3Vk-53" value="" style="group;rotation=-90;" parent="UyC3MJAuwIzsb8hnh3Vk-47" vertex="1" connectable="0">
          <mxGeometry x="70" y="50" width="80" height="100" as="geometry" />
        </mxCell>
        <mxCell id="UyC3MJAuwIzsb8hnh3Vk-54" value="" style="group;rotation=-90;" parent="UyC3MJAuwIzsb8hnh3Vk-53" vertex="1" connectable="0">
          <mxGeometry width="30" height="50" as="geometry" />
        </mxCell>
        <mxCell id="UyC3MJAuwIzsb8hnh3Vk-55" value="" style="endArrow=none;html=1;rounded=0;" parent="UyC3MJAuwIzsb8hnh3Vk-54" edge="1">
          <mxGeometry width="50" height="50" relative="1" as="geometry">
            <mxPoint x="40" y="40" as="sourcePoint" />
            <mxPoint x="10" y="40" as="targetPoint" />
          </mxGeometry>
        </mxCell>
        <mxCell id="UyC3MJAuwIzsb8hnh3Vk-56" value="" style="endArrow=none;html=1;rounded=0;" parent="UyC3MJAuwIzsb8hnh3Vk-54" edge="1">
          <mxGeometry width="50" height="50" relative="1" as="geometry">
            <mxPoint x="40" y="40" as="sourcePoint" />
            <mxPoint x="40" y="10" as="targetPoint" />
          </mxGeometry>
        </mxCell>
        <mxCell id="UyC3MJAuwIzsb8hnh3Vk-57" value="" style="endArrow=classic;startArrow=classic;html=1;rounded=0;" parent="UyC3MJAuwIzsb8hnh3Vk-53" edge="1">
          <mxGeometry width="50" height="50" relative="1" as="geometry">
            <mxPoint x="90" y="90" as="sourcePoint" />
            <mxPoint x="40" y="40" as="targetPoint" />
          </mxGeometry>
        </mxCell>
        <mxCell id="UyC3MJAuwIzsb8hnh3Vk-58" value="" style="group;rotation=-90;" parent="UyC3MJAuwIzsb8hnh3Vk-47" vertex="1" connectable="0">
          <mxGeometry x="10" y="50" width="80" height="100" as="geometry" />
        </mxCell>
        <mxCell id="UyC3MJAuwIzsb8hnh3Vk-59" value="" style="group;rotation=-90;" parent="UyC3MJAuwIzsb8hnh3Vk-58" vertex="1" connectable="0">
          <mxGeometry width="30" height="50" as="geometry" />
        </mxCell>
        <mxCell id="UyC3MJAuwIzsb8hnh3Vk-60" value="" style="endArrow=none;html=1;rounded=0;" parent="UyC3MJAuwIzsb8hnh3Vk-59" edge="1">
          <mxGeometry width="50" height="50" relative="1" as="geometry">
            <mxPoint x="40" y="40" as="sourcePoint" />
            <mxPoint x="10" y="40" as="targetPoint" />
          </mxGeometry>
        </mxCell>
        <mxCell id="UyC3MJAuwIzsb8hnh3Vk-61" value="" style="endArrow=none;html=1;rounded=0;" parent="UyC3MJAuwIzsb8hnh3Vk-59" edge="1">
          <mxGeometry width="50" height="50" relative="1" as="geometry">
            <mxPoint x="40" y="40" as="sourcePoint" />
            <mxPoint x="40" y="10" as="targetPoint" />
          </mxGeometry>
        </mxCell>
        <mxCell id="UyC3MJAuwIzsb8hnh3Vk-62" value="" style="endArrow=classic;startArrow=classic;html=1;rounded=0;" parent="UyC3MJAuwIzsb8hnh3Vk-58" edge="1">
          <mxGeometry width="50" height="50" relative="1" as="geometry">
            <mxPoint x="90" y="90" as="sourcePoint" />
            <mxPoint x="40" y="40" as="targetPoint" />
          </mxGeometry>
        </mxCell>
        <mxCell id="UyC3MJAuwIzsb8hnh3Vk-63" value="" style="group;rotation=-90;" parent="UyC3MJAuwIzsb8hnh3Vk-47" vertex="1" connectable="0">
          <mxGeometry x="60" y="-10" width="80" height="100" as="geometry" />
        </mxCell>
        <mxCell id="UyC3MJAuwIzsb8hnh3Vk-64" value="" style="group;rotation=-90;" parent="UyC3MJAuwIzsb8hnh3Vk-63" vertex="1" connectable="0">
          <mxGeometry width="30" height="50" as="geometry" />
        </mxCell>
        <mxCell id="UyC3MJAuwIzsb8hnh3Vk-65" value="" style="endArrow=none;html=1;rounded=0;" parent="UyC3MJAuwIzsb8hnh3Vk-64" edge="1">
          <mxGeometry width="50" height="50" relative="1" as="geometry">
            <mxPoint x="40" y="40" as="sourcePoint" />
            <mxPoint x="10" y="40" as="targetPoint" />
          </mxGeometry>
        </mxCell>
        <mxCell id="UyC3MJAuwIzsb8hnh3Vk-66" value="" style="endArrow=none;html=1;rounded=0;" parent="UyC3MJAuwIzsb8hnh3Vk-64" edge="1">
          <mxGeometry width="50" height="50" relative="1" as="geometry">
            <mxPoint x="40" y="40" as="sourcePoint" />
            <mxPoint x="40" y="10" as="targetPoint" />
          </mxGeometry>
        </mxCell>
        <mxCell id="UyC3MJAuwIzsb8hnh3Vk-67" value="" style="endArrow=classic;startArrow=classic;html=1;rounded=0;" parent="UyC3MJAuwIzsb8hnh3Vk-63" edge="1">
          <mxGeometry width="50" height="50" relative="1" as="geometry">
            <mxPoint x="90" y="90" as="sourcePoint" />
            <mxPoint x="40" y="40" as="targetPoint" />
          </mxGeometry>
        </mxCell>
        <mxCell id="UyC3MJAuwIzsb8hnh3Vk-68" value="" style="group" parent="UyC3MJAuwIzsb8hnh3Vk-46" vertex="1" connectable="0">
          <mxGeometry x="9" y="117" width="160" height="140" as="geometry" />
        </mxCell>
        <mxCell id="UyC3MJAuwIzsb8hnh3Vk-69" value="" style="group;rotation=-90;" parent="UyC3MJAuwIzsb8hnh3Vk-68" vertex="1" connectable="0">
          <mxGeometry x="10" y="-10" width="80" height="100" as="geometry" />
        </mxCell>
        <mxCell id="UyC3MJAuwIzsb8hnh3Vk-70" value="" style="group;rotation=-90;" parent="UyC3MJAuwIzsb8hnh3Vk-69" vertex="1" connectable="0">
          <mxGeometry width="30" height="50" as="geometry" />
        </mxCell>
        <mxCell id="UyC3MJAuwIzsb8hnh3Vk-71" value="" style="endArrow=none;html=1;rounded=0;" parent="UyC3MJAuwIzsb8hnh3Vk-70" edge="1">
          <mxGeometry width="50" height="50" relative="1" as="geometry">
            <mxPoint x="40" y="40" as="sourcePoint" />
            <mxPoint x="10" y="40" as="targetPoint" />
          </mxGeometry>
        </mxCell>
        <mxCell id="UyC3MJAuwIzsb8hnh3Vk-72" value="" style="endArrow=none;html=1;rounded=0;" parent="UyC3MJAuwIzsb8hnh3Vk-70" edge="1">
          <mxGeometry width="50" height="50" relative="1" as="geometry">
            <mxPoint x="40" y="40" as="sourcePoint" />
            <mxPoint x="40" y="10" as="targetPoint" />
          </mxGeometry>
        </mxCell>
        <mxCell id="UyC3MJAuwIzsb8hnh3Vk-73" value="" style="endArrow=classic;startArrow=classic;html=1;rounded=0;" parent="UyC3MJAuwIzsb8hnh3Vk-69" edge="1">
          <mxGeometry width="50" height="50" relative="1" as="geometry">
            <mxPoint x="90" y="90" as="sourcePoint" />
            <mxPoint x="40" y="40" as="targetPoint" />
          </mxGeometry>
        </mxCell>
        <mxCell id="UyC3MJAuwIzsb8hnh3Vk-74" value="" style="group;rotation=-90;" parent="UyC3MJAuwIzsb8hnh3Vk-68" vertex="1" connectable="0">
          <mxGeometry x="70" y="50" width="80" height="100" as="geometry" />
        </mxCell>
        <mxCell id="UyC3MJAuwIzsb8hnh3Vk-75" value="" style="group;rotation=-90;" parent="UyC3MJAuwIzsb8hnh3Vk-74" vertex="1" connectable="0">
          <mxGeometry width="30" height="50" as="geometry" />
        </mxCell>
        <mxCell id="UyC3MJAuwIzsb8hnh3Vk-76" value="" style="endArrow=none;html=1;rounded=0;" parent="UyC3MJAuwIzsb8hnh3Vk-75" edge="1">
          <mxGeometry width="50" height="50" relative="1" as="geometry">
            <mxPoint x="40" y="40" as="sourcePoint" />
            <mxPoint x="10" y="40" as="targetPoint" />
          </mxGeometry>
        </mxCell>
        <mxCell id="UyC3MJAuwIzsb8hnh3Vk-77" value="" style="endArrow=none;html=1;rounded=0;" parent="UyC3MJAuwIzsb8hnh3Vk-75" edge="1">
          <mxGeometry width="50" height="50" relative="1" as="geometry">
            <mxPoint x="40" y="40" as="sourcePoint" />
            <mxPoint x="40" y="10" as="targetPoint" />
          </mxGeometry>
        </mxCell>
        <mxCell id="UyC3MJAuwIzsb8hnh3Vk-78" value="" style="endArrow=classic;startArrow=classic;html=1;rounded=0;" parent="UyC3MJAuwIzsb8hnh3Vk-74" edge="1">
          <mxGeometry width="50" height="50" relative="1" as="geometry">
            <mxPoint x="90" y="90" as="sourcePoint" />
            <mxPoint x="40" y="40" as="targetPoint" />
          </mxGeometry>
        </mxCell>
        <mxCell id="UyC3MJAuwIzsb8hnh3Vk-79" value="" style="group;rotation=-90;" parent="UyC3MJAuwIzsb8hnh3Vk-68" vertex="1" connectable="0">
          <mxGeometry x="10" y="50" width="80" height="100" as="geometry" />
        </mxCell>
        <mxCell id="UyC3MJAuwIzsb8hnh3Vk-80" value="" style="group;rotation=-90;" parent="UyC3MJAuwIzsb8hnh3Vk-79" vertex="1" connectable="0">
          <mxGeometry width="30" height="50" as="geometry" />
        </mxCell>
        <mxCell id="UyC3MJAuwIzsb8hnh3Vk-81" value="" style="endArrow=none;html=1;rounded=0;" parent="UyC3MJAuwIzsb8hnh3Vk-80" edge="1">
          <mxGeometry width="50" height="50" relative="1" as="geometry">
            <mxPoint x="40" y="40" as="sourcePoint" />
            <mxPoint x="10" y="40" as="targetPoint" />
          </mxGeometry>
        </mxCell>
        <mxCell id="UyC3MJAuwIzsb8hnh3Vk-82" value="" style="endArrow=none;html=1;rounded=0;" parent="UyC3MJAuwIzsb8hnh3Vk-80" edge="1">
          <mxGeometry width="50" height="50" relative="1" as="geometry">
            <mxPoint x="40" y="40" as="sourcePoint" />
            <mxPoint x="40" y="10" as="targetPoint" />
          </mxGeometry>
        </mxCell>
        <mxCell id="UyC3MJAuwIzsb8hnh3Vk-83" value="" style="endArrow=classic;startArrow=classic;html=1;rounded=0;" parent="UyC3MJAuwIzsb8hnh3Vk-79" edge="1">
          <mxGeometry width="50" height="50" relative="1" as="geometry">
            <mxPoint x="90" y="90" as="sourcePoint" />
            <mxPoint x="40" y="40" as="targetPoint" />
          </mxGeometry>
        </mxCell>
        <mxCell id="UyC3MJAuwIzsb8hnh3Vk-84" value="" style="group;rotation=-90;" parent="UyC3MJAuwIzsb8hnh3Vk-68" vertex="1" connectable="0">
          <mxGeometry x="60" y="-10" width="80" height="100" as="geometry" />
        </mxCell>
        <mxCell id="UyC3MJAuwIzsb8hnh3Vk-85" value="" style="group;rotation=-90;" parent="UyC3MJAuwIzsb8hnh3Vk-84" vertex="1" connectable="0">
          <mxGeometry width="30" height="50" as="geometry" />
        </mxCell>
        <mxCell id="UyC3MJAuwIzsb8hnh3Vk-86" value="" style="endArrow=none;html=1;rounded=0;" parent="UyC3MJAuwIzsb8hnh3Vk-85" edge="1">
          <mxGeometry width="50" height="50" relative="1" as="geometry">
            <mxPoint x="40" y="40" as="sourcePoint" />
            <mxPoint x="10" y="40" as="targetPoint" />
          </mxGeometry>
        </mxCell>
        <mxCell id="UyC3MJAuwIzsb8hnh3Vk-87" value="" style="endArrow=none;html=1;rounded=0;" parent="UyC3MJAuwIzsb8hnh3Vk-85" edge="1">
          <mxGeometry width="50" height="50" relative="1" as="geometry">
            <mxPoint x="40" y="40" as="sourcePoint" />
            <mxPoint x="40" y="10" as="targetPoint" />
          </mxGeometry>
        </mxCell>
        <mxCell id="UyC3MJAuwIzsb8hnh3Vk-88" value="" style="endArrow=classic;startArrow=classic;html=1;rounded=0;" parent="UyC3MJAuwIzsb8hnh3Vk-84" edge="1">
          <mxGeometry width="50" height="50" relative="1" as="geometry">
            <mxPoint x="90" y="90" as="sourcePoint" />
            <mxPoint x="40" y="40" as="targetPoint" />
          </mxGeometry>
        </mxCell>
        <mxCell id="UyC3MJAuwIzsb8hnh3Vk-134" value="" style="group" parent="1" vertex="1" connectable="0">
          <mxGeometry x="440" y="40" width="290" height="110" as="geometry" />
        </mxCell>
        <mxCell id="UyC3MJAuwIzsb8hnh3Vk-146" value="" style="group" parent="UyC3MJAuwIzsb8hnh3Vk-134" vertex="1" connectable="0">
          <mxGeometry x="60" width="110" height="110" as="geometry" />
        </mxCell>
        <mxCell id="UyC3MJAuwIzsb8hnh3Vk-147" value="" style="group;rotation=-90;" parent="UyC3MJAuwIzsb8hnh3Vk-146" vertex="1" connectable="0">
          <mxGeometry x="10" y="-10" width="80" height="100" as="geometry" />
        </mxCell>
        <mxCell id="UyC3MJAuwIzsb8hnh3Vk-148" value="" style="group;rotation=-90;" parent="UyC3MJAuwIzsb8hnh3Vk-147" vertex="1" connectable="0">
          <mxGeometry width="30" height="50" as="geometry" />
        </mxCell>
        <mxCell id="UyC3MJAuwIzsb8hnh3Vk-149" value="" style="endArrow=none;html=1;rounded=0;" parent="UyC3MJAuwIzsb8hnh3Vk-148" edge="1">
          <mxGeometry width="50" height="50" relative="1" as="geometry">
            <mxPoint x="40" y="40" as="sourcePoint" />
            <mxPoint x="10" y="40" as="targetPoint" />
          </mxGeometry>
        </mxCell>
        <mxCell id="UyC3MJAuwIzsb8hnh3Vk-150" value="" style="endArrow=none;html=1;rounded=0;" parent="UyC3MJAuwIzsb8hnh3Vk-148" edge="1">
          <mxGeometry width="50" height="50" relative="1" as="geometry">
            <mxPoint x="40" y="40" as="sourcePoint" />
            <mxPoint x="40" y="10" as="targetPoint" />
          </mxGeometry>
        </mxCell>
        <mxCell id="UyC3MJAuwIzsb8hnh3Vk-151" value="" style="endArrow=classic;startArrow=classic;html=1;rounded=0;" parent="UyC3MJAuwIzsb8hnh3Vk-147" edge="1">
          <mxGeometry width="50" height="50" relative="1" as="geometry">
            <mxPoint x="90" y="90" as="sourcePoint" />
            <mxPoint x="40" y="40" as="targetPoint" />
          </mxGeometry>
        </mxCell>
        <mxCell id="UyC3MJAuwIzsb8hnh3Vk-152" value="" style="group;rotation=90;" parent="UyC3MJAuwIzsb8hnh3Vk-146" vertex="1" connectable="0">
          <mxGeometry x="20" y="20" width="80" height="100" as="geometry" />
        </mxCell>
        <mxCell id="UyC3MJAuwIzsb8hnh3Vk-153" value="" style="group;rotation=90;" parent="UyC3MJAuwIzsb8hnh3Vk-152" vertex="1" connectable="0">
          <mxGeometry x="50" y="50" width="30" height="50" as="geometry" />
        </mxCell>
        <mxCell id="UyC3MJAuwIzsb8hnh3Vk-154" value="" style="endArrow=none;html=1;rounded=0;" parent="UyC3MJAuwIzsb8hnh3Vk-153" edge="1">
          <mxGeometry width="50" height="50" relative="1" as="geometry">
            <mxPoint x="-10" y="10" as="sourcePoint" />
            <mxPoint x="20" y="10" as="targetPoint" />
          </mxGeometry>
        </mxCell>
        <mxCell id="UyC3MJAuwIzsb8hnh3Vk-155" value="" style="endArrow=none;html=1;rounded=0;" parent="UyC3MJAuwIzsb8hnh3Vk-153" edge="1">
          <mxGeometry width="50" height="50" relative="1" as="geometry">
            <mxPoint x="-10" y="10" as="sourcePoint" />
            <mxPoint x="-10" y="40" as="targetPoint" />
          </mxGeometry>
        </mxCell>
        <mxCell id="UyC3MJAuwIzsb8hnh3Vk-156" value="" style="endArrow=classic;startArrow=classic;html=1;rounded=0;" parent="UyC3MJAuwIzsb8hnh3Vk-152" edge="1">
          <mxGeometry width="50" height="50" relative="1" as="geometry">
            <mxPoint x="-10" y="10" as="sourcePoint" />
            <mxPoint x="40" y="60" as="targetPoint" />
          </mxGeometry>
        </mxCell>
        <mxCell id="UyC3MJAuwIzsb8hnh3Vk-157" value="" style="group" parent="UyC3MJAuwIzsb8hnh3Vk-134" vertex="1" connectable="0">
          <mxGeometry x="120" width="110" height="110" as="geometry" />
        </mxCell>
        <mxCell id="UyC3MJAuwIzsb8hnh3Vk-158" value="" style="group;rotation=-90;" parent="UyC3MJAuwIzsb8hnh3Vk-157" vertex="1" connectable="0">
          <mxGeometry x="10" y="-10" width="80" height="100" as="geometry" />
        </mxCell>
        <mxCell id="UyC3MJAuwIzsb8hnh3Vk-159" value="" style="group;rotation=-90;" parent="UyC3MJAuwIzsb8hnh3Vk-158" vertex="1" connectable="0">
          <mxGeometry width="30" height="50" as="geometry" />
        </mxCell>
        <mxCell id="UyC3MJAuwIzsb8hnh3Vk-160" value="" style="endArrow=none;html=1;rounded=0;" parent="UyC3MJAuwIzsb8hnh3Vk-159" edge="1">
          <mxGeometry width="50" height="50" relative="1" as="geometry">
            <mxPoint x="40" y="40" as="sourcePoint" />
            <mxPoint x="10" y="40" as="targetPoint" />
          </mxGeometry>
        </mxCell>
        <mxCell id="UyC3MJAuwIzsb8hnh3Vk-161" value="" style="endArrow=none;html=1;rounded=0;" parent="UyC3MJAuwIzsb8hnh3Vk-159" edge="1">
          <mxGeometry width="50" height="50" relative="1" as="geometry">
            <mxPoint x="40" y="40" as="sourcePoint" />
            <mxPoint x="40" y="10" as="targetPoint" />
          </mxGeometry>
        </mxCell>
        <mxCell id="UyC3MJAuwIzsb8hnh3Vk-162" value="" style="endArrow=classic;startArrow=classic;html=1;rounded=0;" parent="UyC3MJAuwIzsb8hnh3Vk-158" edge="1">
          <mxGeometry width="50" height="50" relative="1" as="geometry">
            <mxPoint x="90" y="90" as="sourcePoint" />
            <mxPoint x="40" y="40" as="targetPoint" />
          </mxGeometry>
        </mxCell>
        <mxCell id="UyC3MJAuwIzsb8hnh3Vk-163" value="" style="group;rotation=90;" parent="UyC3MJAuwIzsb8hnh3Vk-157" vertex="1" connectable="0">
          <mxGeometry x="20" y="20" width="80" height="100" as="geometry" />
        </mxCell>
        <mxCell id="UyC3MJAuwIzsb8hnh3Vk-164" value="" style="group;rotation=90;" parent="UyC3MJAuwIzsb8hnh3Vk-163" vertex="1" connectable="0">
          <mxGeometry x="50" y="50" width="30" height="50" as="geometry" />
        </mxCell>
        <mxCell id="UyC3MJAuwIzsb8hnh3Vk-165" value="" style="endArrow=none;html=1;rounded=0;" parent="UyC3MJAuwIzsb8hnh3Vk-164" edge="1">
          <mxGeometry width="50" height="50" relative="1" as="geometry">
            <mxPoint x="-10" y="10" as="sourcePoint" />
            <mxPoint x="20" y="10" as="targetPoint" />
          </mxGeometry>
        </mxCell>
        <mxCell id="UyC3MJAuwIzsb8hnh3Vk-166" value="" style="endArrow=none;html=1;rounded=0;" parent="UyC3MJAuwIzsb8hnh3Vk-164" edge="1">
          <mxGeometry width="50" height="50" relative="1" as="geometry">
            <mxPoint x="-10" y="10" as="sourcePoint" />
            <mxPoint x="-10" y="40" as="targetPoint" />
          </mxGeometry>
        </mxCell>
        <mxCell id="UyC3MJAuwIzsb8hnh3Vk-167" value="" style="endArrow=classic;startArrow=classic;html=1;rounded=0;" parent="UyC3MJAuwIzsb8hnh3Vk-163" edge="1">
          <mxGeometry width="50" height="50" relative="1" as="geometry">
            <mxPoint x="-10" y="10" as="sourcePoint" />
            <mxPoint x="40" y="60" as="targetPoint" />
          </mxGeometry>
        </mxCell>
        <mxCell id="UyC3MJAuwIzsb8hnh3Vk-135" value="" style="group" parent="UyC3MJAuwIzsb8hnh3Vk-134" vertex="1" connectable="0">
          <mxGeometry width="110" height="110" as="geometry" />
        </mxCell>
        <mxCell id="UyC3MJAuwIzsb8hnh3Vk-136" value="" style="group;rotation=-90;" parent="UyC3MJAuwIzsb8hnh3Vk-135" vertex="1" connectable="0">
          <mxGeometry x="10" y="-10" width="80" height="100" as="geometry" />
        </mxCell>
        <mxCell id="UyC3MJAuwIzsb8hnh3Vk-137" value="" style="group;rotation=-90;" parent="UyC3MJAuwIzsb8hnh3Vk-136" vertex="1" connectable="0">
          <mxGeometry width="30" height="50" as="geometry" />
        </mxCell>
        <mxCell id="UyC3MJAuwIzsb8hnh3Vk-138" value="" style="endArrow=none;html=1;rounded=0;" parent="UyC3MJAuwIzsb8hnh3Vk-137" edge="1">
          <mxGeometry width="50" height="50" relative="1" as="geometry">
            <mxPoint x="40" y="40" as="sourcePoint" />
            <mxPoint x="10" y="40" as="targetPoint" />
          </mxGeometry>
        </mxCell>
        <mxCell id="UyC3MJAuwIzsb8hnh3Vk-139" value="" style="endArrow=none;html=1;rounded=0;" parent="UyC3MJAuwIzsb8hnh3Vk-137" edge="1">
          <mxGeometry width="50" height="50" relative="1" as="geometry">
            <mxPoint x="40" y="40" as="sourcePoint" />
            <mxPoint x="40" y="10" as="targetPoint" />
          </mxGeometry>
        </mxCell>
        <mxCell id="UyC3MJAuwIzsb8hnh3Vk-140" value="" style="endArrow=classic;startArrow=classic;html=1;rounded=0;" parent="UyC3MJAuwIzsb8hnh3Vk-136" edge="1">
          <mxGeometry width="50" height="50" relative="1" as="geometry">
            <mxPoint x="90" y="90" as="sourcePoint" />
            <mxPoint x="40" y="40" as="targetPoint" />
          </mxGeometry>
        </mxCell>
        <mxCell id="UyC3MJAuwIzsb8hnh3Vk-141" value="" style="group;rotation=90;" parent="UyC3MJAuwIzsb8hnh3Vk-135" vertex="1" connectable="0">
          <mxGeometry x="20" y="20" width="80" height="100" as="geometry" />
        </mxCell>
        <mxCell id="UyC3MJAuwIzsb8hnh3Vk-142" value="" style="group;rotation=90;" parent="UyC3MJAuwIzsb8hnh3Vk-141" vertex="1" connectable="0">
          <mxGeometry x="50" y="50" width="30" height="50" as="geometry" />
        </mxCell>
        <mxCell id="UyC3MJAuwIzsb8hnh3Vk-143" value="" style="endArrow=none;html=1;rounded=0;" parent="UyC3MJAuwIzsb8hnh3Vk-142" edge="1">
          <mxGeometry width="50" height="50" relative="1" as="geometry">
            <mxPoint x="-10" y="10" as="sourcePoint" />
            <mxPoint x="20" y="10" as="targetPoint" />
          </mxGeometry>
        </mxCell>
        <mxCell id="UyC3MJAuwIzsb8hnh3Vk-144" value="" style="endArrow=none;html=1;rounded=0;" parent="UyC3MJAuwIzsb8hnh3Vk-142" edge="1">
          <mxGeometry width="50" height="50" relative="1" as="geometry">
            <mxPoint x="-10" y="10" as="sourcePoint" />
            <mxPoint x="-10" y="40" as="targetPoint" />
          </mxGeometry>
        </mxCell>
        <mxCell id="UyC3MJAuwIzsb8hnh3Vk-145" value="" style="endArrow=classic;startArrow=classic;html=1;rounded=0;" parent="UyC3MJAuwIzsb8hnh3Vk-141" edge="1">
          <mxGeometry width="50" height="50" relative="1" as="geometry">
            <mxPoint x="-10" y="10" as="sourcePoint" />
            <mxPoint x="40" y="60" as="targetPoint" />
          </mxGeometry>
        </mxCell>
        <mxCell id="UyC3MJAuwIzsb8hnh3Vk-168" value="" style="group" parent="UyC3MJAuwIzsb8hnh3Vk-134" vertex="1" connectable="0">
          <mxGeometry x="180" width="110" height="110" as="geometry" />
        </mxCell>
        <mxCell id="UyC3MJAuwIzsb8hnh3Vk-169" value="" style="group;rotation=-90;" parent="UyC3MJAuwIzsb8hnh3Vk-168" vertex="1" connectable="0">
          <mxGeometry x="10" y="-10" width="80" height="100" as="geometry" />
        </mxCell>
        <mxCell id="UyC3MJAuwIzsb8hnh3Vk-170" value="" style="group;rotation=-90;" parent="UyC3MJAuwIzsb8hnh3Vk-169" vertex="1" connectable="0">
          <mxGeometry width="30" height="50" as="geometry" />
        </mxCell>
        <mxCell id="UyC3MJAuwIzsb8hnh3Vk-171" value="" style="endArrow=none;html=1;rounded=0;" parent="UyC3MJAuwIzsb8hnh3Vk-170" edge="1">
          <mxGeometry width="50" height="50" relative="1" as="geometry">
            <mxPoint x="40" y="40" as="sourcePoint" />
            <mxPoint x="10" y="40" as="targetPoint" />
          </mxGeometry>
        </mxCell>
        <mxCell id="UyC3MJAuwIzsb8hnh3Vk-172" value="" style="endArrow=none;html=1;rounded=0;" parent="UyC3MJAuwIzsb8hnh3Vk-170" edge="1">
          <mxGeometry width="50" height="50" relative="1" as="geometry">
            <mxPoint x="40" y="40" as="sourcePoint" />
            <mxPoint x="40" y="10" as="targetPoint" />
          </mxGeometry>
        </mxCell>
        <mxCell id="UyC3MJAuwIzsb8hnh3Vk-173" value="" style="endArrow=classic;startArrow=classic;html=1;rounded=0;" parent="UyC3MJAuwIzsb8hnh3Vk-169" edge="1">
          <mxGeometry width="50" height="50" relative="1" as="geometry">
            <mxPoint x="90" y="90" as="sourcePoint" />
            <mxPoint x="40" y="40" as="targetPoint" />
          </mxGeometry>
        </mxCell>
        <mxCell id="UyC3MJAuwIzsb8hnh3Vk-174" value="" style="group;rotation=90;" parent="UyC3MJAuwIzsb8hnh3Vk-168" vertex="1" connectable="0">
          <mxGeometry x="20" y="20" width="80" height="100" as="geometry" />
        </mxCell>
        <mxCell id="UyC3MJAuwIzsb8hnh3Vk-175" value="" style="group;rotation=90;" parent="UyC3MJAuwIzsb8hnh3Vk-174" vertex="1" connectable="0">
          <mxGeometry x="50" y="50" width="30" height="50" as="geometry" />
        </mxCell>
        <mxCell id="UyC3MJAuwIzsb8hnh3Vk-176" value="" style="endArrow=none;html=1;rounded=0;" parent="UyC3MJAuwIzsb8hnh3Vk-175" edge="1">
          <mxGeometry width="50" height="50" relative="1" as="geometry">
            <mxPoint x="-10" y="10" as="sourcePoint" />
            <mxPoint x="20" y="10" as="targetPoint" />
          </mxGeometry>
        </mxCell>
        <mxCell id="UyC3MJAuwIzsb8hnh3Vk-177" value="" style="endArrow=none;html=1;rounded=0;" parent="UyC3MJAuwIzsb8hnh3Vk-175" edge="1">
          <mxGeometry width="50" height="50" relative="1" as="geometry">
            <mxPoint x="-10" y="10" as="sourcePoint" />
            <mxPoint x="-10" y="40" as="targetPoint" />
          </mxGeometry>
        </mxCell>
        <mxCell id="UyC3MJAuwIzsb8hnh3Vk-178" value="" style="endArrow=classic;startArrow=classic;html=1;rounded=0;" parent="UyC3MJAuwIzsb8hnh3Vk-174" edge="1">
          <mxGeometry width="50" height="50" relative="1" as="geometry">
            <mxPoint x="-10" y="10" as="sourcePoint" />
            <mxPoint x="40" y="60" as="targetPoint" />
          </mxGeometry>
        </mxCell>
        <mxCell id="UyC3MJAuwIzsb8hnh3Vk-45" value="" style="group" parent="1" vertex="1" connectable="0">
          <mxGeometry x="90" y="30" width="290" height="257" as="geometry" />
        </mxCell>
        <mxCell id="UyC3MJAuwIzsb8hnh3Vk-23" value="" style="group" parent="UyC3MJAuwIzsb8hnh3Vk-45" vertex="1" connectable="0">
          <mxGeometry width="160" height="140" as="geometry" />
        </mxCell>
        <mxCell id="UyC3MJAuwIzsb8hnh3Vk-7" value="" style="group;rotation=-90;" parent="UyC3MJAuwIzsb8hnh3Vk-23" vertex="1" connectable="0">
          <mxGeometry x="10" y="-10" width="80" height="100" as="geometry" />
        </mxCell>
        <mxCell id="UyC3MJAuwIzsb8hnh3Vk-4" value="" style="group;rotation=-90;" parent="UyC3MJAuwIzsb8hnh3Vk-7" vertex="1" connectable="0">
          <mxGeometry width="30" height="50" as="geometry" />
        </mxCell>
        <mxCell id="UyC3MJAuwIzsb8hnh3Vk-2" value="" style="endArrow=none;html=1;rounded=0;" parent="UyC3MJAuwIzsb8hnh3Vk-4" edge="1">
          <mxGeometry width="50" height="50" relative="1" as="geometry">
            <mxPoint x="40" y="40" as="sourcePoint" />
            <mxPoint x="10" y="40" as="targetPoint" />
          </mxGeometry>
        </mxCell>
        <mxCell id="UyC3MJAuwIzsb8hnh3Vk-3" value="" style="endArrow=none;html=1;rounded=0;" parent="UyC3MJAuwIzsb8hnh3Vk-4" edge="1">
          <mxGeometry width="50" height="50" relative="1" as="geometry">
            <mxPoint x="40" y="40" as="sourcePoint" />
            <mxPoint x="40" y="10" as="targetPoint" />
          </mxGeometry>
        </mxCell>
        <mxCell id="UyC3MJAuwIzsb8hnh3Vk-6" value="" style="endArrow=classic;startArrow=classic;html=1;rounded=0;" parent="UyC3MJAuwIzsb8hnh3Vk-7" edge="1">
          <mxGeometry width="50" height="50" relative="1" as="geometry">
            <mxPoint x="90" y="90" as="sourcePoint" />
            <mxPoint x="40" y="40" as="targetPoint" />
          </mxGeometry>
        </mxCell>
        <mxCell id="UyC3MJAuwIzsb8hnh3Vk-8" value="" style="group;rotation=-90;" parent="UyC3MJAuwIzsb8hnh3Vk-23" vertex="1" connectable="0">
          <mxGeometry x="70" y="50" width="80" height="100" as="geometry" />
        </mxCell>
        <mxCell id="UyC3MJAuwIzsb8hnh3Vk-9" value="" style="group;rotation=-90;" parent="UyC3MJAuwIzsb8hnh3Vk-8" vertex="1" connectable="0">
          <mxGeometry width="30" height="50" as="geometry" />
        </mxCell>
        <mxCell id="UyC3MJAuwIzsb8hnh3Vk-10" value="" style="endArrow=none;html=1;rounded=0;" parent="UyC3MJAuwIzsb8hnh3Vk-9" edge="1">
          <mxGeometry width="50" height="50" relative="1" as="geometry">
            <mxPoint x="40" y="40" as="sourcePoint" />
            <mxPoint x="10" y="40" as="targetPoint" />
          </mxGeometry>
        </mxCell>
        <mxCell id="UyC3MJAuwIzsb8hnh3Vk-11" value="" style="endArrow=none;html=1;rounded=0;" parent="UyC3MJAuwIzsb8hnh3Vk-9" edge="1">
          <mxGeometry width="50" height="50" relative="1" as="geometry">
            <mxPoint x="40" y="40" as="sourcePoint" />
            <mxPoint x="40" y="10" as="targetPoint" />
          </mxGeometry>
        </mxCell>
        <mxCell id="UyC3MJAuwIzsb8hnh3Vk-12" value="" style="endArrow=classic;startArrow=classic;html=1;rounded=0;" parent="UyC3MJAuwIzsb8hnh3Vk-8" edge="1">
          <mxGeometry width="50" height="50" relative="1" as="geometry">
            <mxPoint x="90" y="90" as="sourcePoint" />
            <mxPoint x="40" y="40" as="targetPoint" />
          </mxGeometry>
        </mxCell>
        <mxCell id="UyC3MJAuwIzsb8hnh3Vk-13" value="" style="group;rotation=-90;" parent="UyC3MJAuwIzsb8hnh3Vk-23" vertex="1" connectable="0">
          <mxGeometry x="10" y="50" width="80" height="100" as="geometry" />
        </mxCell>
        <mxCell id="UyC3MJAuwIzsb8hnh3Vk-14" value="" style="group;rotation=-90;" parent="UyC3MJAuwIzsb8hnh3Vk-13" vertex="1" connectable="0">
          <mxGeometry width="30" height="50" as="geometry" />
        </mxCell>
        <mxCell id="UyC3MJAuwIzsb8hnh3Vk-15" value="" style="endArrow=none;html=1;rounded=0;" parent="UyC3MJAuwIzsb8hnh3Vk-14" edge="1">
          <mxGeometry width="50" height="50" relative="1" as="geometry">
            <mxPoint x="40" y="40" as="sourcePoint" />
            <mxPoint x="10" y="40" as="targetPoint" />
          </mxGeometry>
        </mxCell>
        <mxCell id="UyC3MJAuwIzsb8hnh3Vk-16" value="" style="endArrow=none;html=1;rounded=0;" parent="UyC3MJAuwIzsb8hnh3Vk-14" edge="1">
          <mxGeometry width="50" height="50" relative="1" as="geometry">
            <mxPoint x="40" y="40" as="sourcePoint" />
            <mxPoint x="40" y="10" as="targetPoint" />
          </mxGeometry>
        </mxCell>
        <mxCell id="UyC3MJAuwIzsb8hnh3Vk-17" value="" style="endArrow=classic;startArrow=classic;html=1;rounded=0;" parent="UyC3MJAuwIzsb8hnh3Vk-13" edge="1">
          <mxGeometry width="50" height="50" relative="1" as="geometry">
            <mxPoint x="90" y="90" as="sourcePoint" />
            <mxPoint x="40" y="40" as="targetPoint" />
          </mxGeometry>
        </mxCell>
        <mxCell id="UyC3MJAuwIzsb8hnh3Vk-18" value="" style="group;rotation=-90;" parent="UyC3MJAuwIzsb8hnh3Vk-23" vertex="1" connectable="0">
          <mxGeometry x="60" y="-10" width="80" height="100" as="geometry" />
        </mxCell>
        <mxCell id="UyC3MJAuwIzsb8hnh3Vk-19" value="" style="group;rotation=-90;" parent="UyC3MJAuwIzsb8hnh3Vk-18" vertex="1" connectable="0">
          <mxGeometry width="30" height="50" as="geometry" />
        </mxCell>
        <mxCell id="UyC3MJAuwIzsb8hnh3Vk-20" value="" style="endArrow=none;html=1;rounded=0;" parent="UyC3MJAuwIzsb8hnh3Vk-19" edge="1">
          <mxGeometry width="50" height="50" relative="1" as="geometry">
            <mxPoint x="40" y="40" as="sourcePoint" />
            <mxPoint x="10" y="40" as="targetPoint" />
          </mxGeometry>
        </mxCell>
        <mxCell id="UyC3MJAuwIzsb8hnh3Vk-21" value="" style="endArrow=none;html=1;rounded=0;" parent="UyC3MJAuwIzsb8hnh3Vk-19" edge="1">
          <mxGeometry width="50" height="50" relative="1" as="geometry">
            <mxPoint x="40" y="40" as="sourcePoint" />
            <mxPoint x="40" y="10" as="targetPoint" />
          </mxGeometry>
        </mxCell>
        <mxCell id="UyC3MJAuwIzsb8hnh3Vk-22" value="" style="endArrow=classic;startArrow=classic;html=1;rounded=0;" parent="UyC3MJAuwIzsb8hnh3Vk-18" edge="1">
          <mxGeometry width="50" height="50" relative="1" as="geometry">
            <mxPoint x="90" y="90" as="sourcePoint" />
            <mxPoint x="40" y="40" as="targetPoint" />
          </mxGeometry>
        </mxCell>
        <mxCell id="UyC3MJAuwIzsb8hnh3Vk-24" value="" style="group" parent="UyC3MJAuwIzsb8hnh3Vk-45" vertex="1" connectable="0">
          <mxGeometry x="9" y="117" width="281" height="140" as="geometry" />
        </mxCell>
        <mxCell id="UyC3MJAuwIzsb8hnh3Vk-25" value="" style="group;rotation=-90;" parent="UyC3MJAuwIzsb8hnh3Vk-24" vertex="1" connectable="0">
          <mxGeometry x="10" y="-10" width="80" height="100" as="geometry" />
        </mxCell>
        <mxCell id="UyC3MJAuwIzsb8hnh3Vk-26" value="" style="group;rotation=-90;" parent="UyC3MJAuwIzsb8hnh3Vk-25" vertex="1" connectable="0">
          <mxGeometry width="30" height="50" as="geometry" />
        </mxCell>
        <mxCell id="UyC3MJAuwIzsb8hnh3Vk-27" value="" style="endArrow=none;html=1;rounded=0;" parent="UyC3MJAuwIzsb8hnh3Vk-26" edge="1">
          <mxGeometry width="50" height="50" relative="1" as="geometry">
            <mxPoint x="40" y="40" as="sourcePoint" />
            <mxPoint x="10" y="40" as="targetPoint" />
          </mxGeometry>
        </mxCell>
        <mxCell id="UyC3MJAuwIzsb8hnh3Vk-28" value="" style="endArrow=none;html=1;rounded=0;" parent="UyC3MJAuwIzsb8hnh3Vk-26" edge="1">
          <mxGeometry width="50" height="50" relative="1" as="geometry">
            <mxPoint x="40" y="40" as="sourcePoint" />
            <mxPoint x="40" y="10" as="targetPoint" />
          </mxGeometry>
        </mxCell>
        <mxCell id="UyC3MJAuwIzsb8hnh3Vk-29" value="" style="endArrow=classic;startArrow=classic;html=1;rounded=0;" parent="UyC3MJAuwIzsb8hnh3Vk-25" edge="1">
          <mxGeometry width="50" height="50" relative="1" as="geometry">
            <mxPoint x="90" y="90" as="sourcePoint" />
            <mxPoint x="40" y="40" as="targetPoint" />
          </mxGeometry>
        </mxCell>
        <mxCell id="UyC3MJAuwIzsb8hnh3Vk-30" value="" style="group;rotation=-90;" parent="UyC3MJAuwIzsb8hnh3Vk-24" vertex="1" connectable="0">
          <mxGeometry x="70" y="50" width="80" height="100" as="geometry" />
        </mxCell>
        <mxCell id="UyC3MJAuwIzsb8hnh3Vk-31" value="" style="group;rotation=-90;" parent="UyC3MJAuwIzsb8hnh3Vk-30" vertex="1" connectable="0">
          <mxGeometry width="30" height="50" as="geometry" />
        </mxCell>
        <mxCell id="UyC3MJAuwIzsb8hnh3Vk-32" value="" style="endArrow=none;html=1;rounded=0;" parent="UyC3MJAuwIzsb8hnh3Vk-31" edge="1">
          <mxGeometry width="50" height="50" relative="1" as="geometry">
            <mxPoint x="40" y="40" as="sourcePoint" />
            <mxPoint x="10" y="40" as="targetPoint" />
          </mxGeometry>
        </mxCell>
        <mxCell id="UyC3MJAuwIzsb8hnh3Vk-33" value="" style="endArrow=none;html=1;rounded=0;" parent="UyC3MJAuwIzsb8hnh3Vk-31" edge="1">
          <mxGeometry width="50" height="50" relative="1" as="geometry">
            <mxPoint x="40" y="40" as="sourcePoint" />
            <mxPoint x="40" y="10" as="targetPoint" />
          </mxGeometry>
        </mxCell>
        <mxCell id="UyC3MJAuwIzsb8hnh3Vk-34" value="" style="endArrow=classic;startArrow=classic;html=1;rounded=0;" parent="UyC3MJAuwIzsb8hnh3Vk-30" edge="1">
          <mxGeometry width="50" height="50" relative="1" as="geometry">
            <mxPoint x="90" y="90" as="sourcePoint" />
            <mxPoint x="40" y="40" as="targetPoint" />
          </mxGeometry>
        </mxCell>
        <mxCell id="UyC3MJAuwIzsb8hnh3Vk-35" value="" style="group;rotation=-90;" parent="UyC3MJAuwIzsb8hnh3Vk-24" vertex="1" connectable="0">
          <mxGeometry x="10" y="50" width="80" height="100" as="geometry" />
        </mxCell>
        <mxCell id="UyC3MJAuwIzsb8hnh3Vk-36" value="" style="group;rotation=-90;" parent="UyC3MJAuwIzsb8hnh3Vk-35" vertex="1" connectable="0">
          <mxGeometry width="30" height="50" as="geometry" />
        </mxCell>
        <mxCell id="UyC3MJAuwIzsb8hnh3Vk-37" value="" style="endArrow=none;html=1;rounded=0;" parent="UyC3MJAuwIzsb8hnh3Vk-36" edge="1">
          <mxGeometry width="50" height="50" relative="1" as="geometry">
            <mxPoint x="40" y="40" as="sourcePoint" />
            <mxPoint x="10" y="40" as="targetPoint" />
          </mxGeometry>
        </mxCell>
        <mxCell id="UyC3MJAuwIzsb8hnh3Vk-38" value="" style="endArrow=none;html=1;rounded=0;" parent="UyC3MJAuwIzsb8hnh3Vk-36" edge="1">
          <mxGeometry width="50" height="50" relative="1" as="geometry">
            <mxPoint x="40" y="40" as="sourcePoint" />
            <mxPoint x="40" y="10" as="targetPoint" />
          </mxGeometry>
        </mxCell>
        <mxCell id="UyC3MJAuwIzsb8hnh3Vk-39" value="" style="endArrow=classic;startArrow=classic;html=1;rounded=0;" parent="UyC3MJAuwIzsb8hnh3Vk-35" edge="1">
          <mxGeometry width="50" height="50" relative="1" as="geometry">
            <mxPoint x="90" y="90" as="sourcePoint" />
            <mxPoint x="40" y="40" as="targetPoint" />
          </mxGeometry>
        </mxCell>
        <mxCell id="UyC3MJAuwIzsb8hnh3Vk-40" value="" style="group;rotation=-90;" parent="UyC3MJAuwIzsb8hnh3Vk-24" vertex="1" connectable="0">
          <mxGeometry x="60" y="-10" width="221" height="150" as="geometry" />
        </mxCell>
        <mxCell id="UyC3MJAuwIzsb8hnh3Vk-41" value="" style="group;rotation=-90;" parent="UyC3MJAuwIzsb8hnh3Vk-40" vertex="1" connectable="0">
          <mxGeometry width="221" height="150" as="geometry" />
        </mxCell>
        <mxCell id="UyC3MJAuwIzsb8hnh3Vk-42" value="" style="endArrow=none;html=1;rounded=0;" parent="UyC3MJAuwIzsb8hnh3Vk-41" edge="1">
          <mxGeometry width="50" height="50" relative="1" as="geometry">
            <mxPoint x="40" y="40" as="sourcePoint" />
            <mxPoint x="10" y="40" as="targetPoint" />
          </mxGeometry>
        </mxCell>
        <mxCell id="UyC3MJAuwIzsb8hnh3Vk-43" value="" style="endArrow=none;html=1;rounded=0;" parent="UyC3MJAuwIzsb8hnh3Vk-41" edge="1">
          <mxGeometry width="50" height="50" relative="1" as="geometry">
            <mxPoint x="40" y="40" as="sourcePoint" />
            <mxPoint x="40" y="10" as="targetPoint" />
          </mxGeometry>
        </mxCell>
        <mxCell id="UyC3MJAuwIzsb8hnh3Vk-44" value="" style="endArrow=classic;startArrow=classic;html=1;rounded=0;" parent="UyC3MJAuwIzsb8hnh3Vk-40" edge="1">
          <mxGeometry width="50" height="50" relative="1" as="geometry">
            <mxPoint x="90" y="90" as="sourcePoint" />
            <mxPoint x="40" y="40" as="targetPoint" />
          </mxGeometry>
        </mxCell>
        <mxCell id="UyC3MJAuwIzsb8hnh3Vk-133" value="" style="group" parent="1" vertex="1" connectable="0">
          <mxGeometry x="450" y="160" width="290" height="110" as="geometry" />
        </mxCell>
        <mxCell id="UyC3MJAuwIzsb8hnh3Vk-99" value="" style="group" parent="UyC3MJAuwIzsb8hnh3Vk-133" vertex="1" connectable="0">
          <mxGeometry width="110" height="110" as="geometry" />
        </mxCell>
        <mxCell id="UyC3MJAuwIzsb8hnh3Vk-89" value="" style="group;rotation=-90;" parent="UyC3MJAuwIzsb8hnh3Vk-99" vertex="1" connectable="0">
          <mxGeometry x="10" y="-10" width="80" height="100" as="geometry" />
        </mxCell>
        <mxCell id="UyC3MJAuwIzsb8hnh3Vk-90" value="" style="group;rotation=-90;" parent="UyC3MJAuwIzsb8hnh3Vk-89" vertex="1" connectable="0">
          <mxGeometry width="30" height="50" as="geometry" />
        </mxCell>
        <mxCell id="UyC3MJAuwIzsb8hnh3Vk-91" value="" style="endArrow=none;html=1;rounded=0;" parent="UyC3MJAuwIzsb8hnh3Vk-90" edge="1">
          <mxGeometry width="50" height="50" relative="1" as="geometry">
            <mxPoint x="40" y="40" as="sourcePoint" />
            <mxPoint x="10" y="40" as="targetPoint" />
          </mxGeometry>
        </mxCell>
        <mxCell id="UyC3MJAuwIzsb8hnh3Vk-92" value="" style="endArrow=none;html=1;rounded=0;" parent="UyC3MJAuwIzsb8hnh3Vk-90" edge="1">
          <mxGeometry width="50" height="50" relative="1" as="geometry">
            <mxPoint x="40" y="40" as="sourcePoint" />
            <mxPoint x="40" y="10" as="targetPoint" />
          </mxGeometry>
        </mxCell>
        <mxCell id="UyC3MJAuwIzsb8hnh3Vk-93" value="" style="endArrow=classic;startArrow=classic;html=1;rounded=0;" parent="UyC3MJAuwIzsb8hnh3Vk-89" edge="1">
          <mxGeometry width="50" height="50" relative="1" as="geometry">
            <mxPoint x="90" y="90" as="sourcePoint" />
            <mxPoint x="40" y="40" as="targetPoint" />
          </mxGeometry>
        </mxCell>
        <mxCell id="UyC3MJAuwIzsb8hnh3Vk-94" value="" style="group;rotation=90;" parent="UyC3MJAuwIzsb8hnh3Vk-99" vertex="1" connectable="0">
          <mxGeometry x="20" y="20" width="80" height="100" as="geometry" />
        </mxCell>
        <mxCell id="UyC3MJAuwIzsb8hnh3Vk-95" value="" style="group;rotation=90;" parent="UyC3MJAuwIzsb8hnh3Vk-94" vertex="1" connectable="0">
          <mxGeometry x="50" y="50" width="30" height="50" as="geometry" />
        </mxCell>
        <mxCell id="UyC3MJAuwIzsb8hnh3Vk-96" value="" style="endArrow=none;html=1;rounded=0;" parent="UyC3MJAuwIzsb8hnh3Vk-95" edge="1">
          <mxGeometry width="50" height="50" relative="1" as="geometry">
            <mxPoint x="-10" y="10" as="sourcePoint" />
            <mxPoint x="20" y="10" as="targetPoint" />
          </mxGeometry>
        </mxCell>
        <mxCell id="UyC3MJAuwIzsb8hnh3Vk-97" value="" style="endArrow=none;html=1;rounded=0;" parent="UyC3MJAuwIzsb8hnh3Vk-95" edge="1">
          <mxGeometry width="50" height="50" relative="1" as="geometry">
            <mxPoint x="-10" y="10" as="sourcePoint" />
            <mxPoint x="-10" y="40" as="targetPoint" />
          </mxGeometry>
        </mxCell>
        <mxCell id="UyC3MJAuwIzsb8hnh3Vk-98" value="" style="endArrow=classic;startArrow=classic;html=1;rounded=0;" parent="UyC3MJAuwIzsb8hnh3Vk-94" edge="1">
          <mxGeometry width="50" height="50" relative="1" as="geometry">
            <mxPoint x="-10" y="10" as="sourcePoint" />
            <mxPoint x="40" y="60" as="targetPoint" />
          </mxGeometry>
        </mxCell>
        <mxCell id="UyC3MJAuwIzsb8hnh3Vk-100" value="" style="group" parent="UyC3MJAuwIzsb8hnh3Vk-133" vertex="1" connectable="0">
          <mxGeometry x="60" width="110" height="110" as="geometry" />
        </mxCell>
        <mxCell id="UyC3MJAuwIzsb8hnh3Vk-101" value="" style="group;rotation=-90;" parent="UyC3MJAuwIzsb8hnh3Vk-100" vertex="1" connectable="0">
          <mxGeometry x="10" y="-10" width="80" height="100" as="geometry" />
        </mxCell>
        <mxCell id="UyC3MJAuwIzsb8hnh3Vk-102" value="" style="group;rotation=-90;" parent="UyC3MJAuwIzsb8hnh3Vk-101" vertex="1" connectable="0">
          <mxGeometry width="30" height="50" as="geometry" />
        </mxCell>
        <mxCell id="UyC3MJAuwIzsb8hnh3Vk-103" value="" style="endArrow=none;html=1;rounded=0;" parent="UyC3MJAuwIzsb8hnh3Vk-102" edge="1">
          <mxGeometry width="50" height="50" relative="1" as="geometry">
            <mxPoint x="40" y="40" as="sourcePoint" />
            <mxPoint x="10" y="40" as="targetPoint" />
          </mxGeometry>
        </mxCell>
        <mxCell id="UyC3MJAuwIzsb8hnh3Vk-104" value="" style="endArrow=none;html=1;rounded=0;" parent="UyC3MJAuwIzsb8hnh3Vk-102" edge="1">
          <mxGeometry width="50" height="50" relative="1" as="geometry">
            <mxPoint x="40" y="40" as="sourcePoint" />
            <mxPoint x="40" y="10" as="targetPoint" />
          </mxGeometry>
        </mxCell>
        <mxCell id="UyC3MJAuwIzsb8hnh3Vk-105" value="" style="endArrow=classic;startArrow=classic;html=1;rounded=0;" parent="UyC3MJAuwIzsb8hnh3Vk-101" edge="1">
          <mxGeometry width="50" height="50" relative="1" as="geometry">
            <mxPoint x="90" y="90" as="sourcePoint" />
            <mxPoint x="40" y="40" as="targetPoint" />
          </mxGeometry>
        </mxCell>
        <mxCell id="UyC3MJAuwIzsb8hnh3Vk-106" value="" style="group;rotation=90;" parent="UyC3MJAuwIzsb8hnh3Vk-100" vertex="1" connectable="0">
          <mxGeometry x="20" y="20" width="80" height="100" as="geometry" />
        </mxCell>
        <mxCell id="UyC3MJAuwIzsb8hnh3Vk-107" value="" style="group;rotation=90;" parent="UyC3MJAuwIzsb8hnh3Vk-106" vertex="1" connectable="0">
          <mxGeometry x="50" y="50" width="30" height="50" as="geometry" />
        </mxCell>
        <mxCell id="UyC3MJAuwIzsb8hnh3Vk-108" value="" style="endArrow=none;html=1;rounded=0;" parent="UyC3MJAuwIzsb8hnh3Vk-107" edge="1">
          <mxGeometry width="50" height="50" relative="1" as="geometry">
            <mxPoint x="-10" y="10" as="sourcePoint" />
            <mxPoint x="20" y="10" as="targetPoint" />
          </mxGeometry>
        </mxCell>
        <mxCell id="UyC3MJAuwIzsb8hnh3Vk-109" value="" style="endArrow=none;html=1;rounded=0;" parent="UyC3MJAuwIzsb8hnh3Vk-107" edge="1">
          <mxGeometry width="50" height="50" relative="1" as="geometry">
            <mxPoint x="-10" y="10" as="sourcePoint" />
            <mxPoint x="-10" y="40" as="targetPoint" />
          </mxGeometry>
        </mxCell>
        <mxCell id="UyC3MJAuwIzsb8hnh3Vk-110" value="" style="endArrow=classic;startArrow=classic;html=1;rounded=0;" parent="UyC3MJAuwIzsb8hnh3Vk-106" edge="1">
          <mxGeometry width="50" height="50" relative="1" as="geometry">
            <mxPoint x="-10" y="10" as="sourcePoint" />
            <mxPoint x="40" y="60" as="targetPoint" />
          </mxGeometry>
        </mxCell>
        <mxCell id="UyC3MJAuwIzsb8hnh3Vk-111" value="" style="group" parent="UyC3MJAuwIzsb8hnh3Vk-133" vertex="1" connectable="0">
          <mxGeometry x="120" width="110" height="110" as="geometry" />
        </mxCell>
        <mxCell id="UyC3MJAuwIzsb8hnh3Vk-112" value="" style="group;rotation=-90;" parent="UyC3MJAuwIzsb8hnh3Vk-111" vertex="1" connectable="0">
          <mxGeometry x="10" y="-10" width="80" height="100" as="geometry" />
        </mxCell>
        <mxCell id="UyC3MJAuwIzsb8hnh3Vk-113" value="" style="group;rotation=-90;" parent="UyC3MJAuwIzsb8hnh3Vk-112" vertex="1" connectable="0">
          <mxGeometry width="30" height="50" as="geometry" />
        </mxCell>
        <mxCell id="UyC3MJAuwIzsb8hnh3Vk-114" value="" style="endArrow=none;html=1;rounded=0;" parent="UyC3MJAuwIzsb8hnh3Vk-113" edge="1">
          <mxGeometry width="50" height="50" relative="1" as="geometry">
            <mxPoint x="40" y="40" as="sourcePoint" />
            <mxPoint x="10" y="40" as="targetPoint" />
          </mxGeometry>
        </mxCell>
        <mxCell id="UyC3MJAuwIzsb8hnh3Vk-115" value="" style="endArrow=none;html=1;rounded=0;" parent="UyC3MJAuwIzsb8hnh3Vk-113" edge="1">
          <mxGeometry width="50" height="50" relative="1" as="geometry">
            <mxPoint x="40" y="40" as="sourcePoint" />
            <mxPoint x="40" y="10" as="targetPoint" />
          </mxGeometry>
        </mxCell>
        <mxCell id="UyC3MJAuwIzsb8hnh3Vk-116" value="" style="endArrow=classic;startArrow=classic;html=1;rounded=0;" parent="UyC3MJAuwIzsb8hnh3Vk-112" edge="1">
          <mxGeometry width="50" height="50" relative="1" as="geometry">
            <mxPoint x="90" y="90" as="sourcePoint" />
            <mxPoint x="40" y="40" as="targetPoint" />
          </mxGeometry>
        </mxCell>
        <mxCell id="UyC3MJAuwIzsb8hnh3Vk-117" value="" style="group;rotation=90;" parent="UyC3MJAuwIzsb8hnh3Vk-111" vertex="1" connectable="0">
          <mxGeometry x="20" y="20" width="80" height="100" as="geometry" />
        </mxCell>
        <mxCell id="UyC3MJAuwIzsb8hnh3Vk-118" value="" style="group;rotation=90;" parent="UyC3MJAuwIzsb8hnh3Vk-117" vertex="1" connectable="0">
          <mxGeometry x="50" y="50" width="30" height="50" as="geometry" />
        </mxCell>
        <mxCell id="UyC3MJAuwIzsb8hnh3Vk-119" value="" style="endArrow=none;html=1;rounded=0;" parent="UyC3MJAuwIzsb8hnh3Vk-118" edge="1">
          <mxGeometry width="50" height="50" relative="1" as="geometry">
            <mxPoint x="-10" y="10" as="sourcePoint" />
            <mxPoint x="20" y="10" as="targetPoint" />
          </mxGeometry>
        </mxCell>
        <mxCell id="UyC3MJAuwIzsb8hnh3Vk-120" value="" style="endArrow=none;html=1;rounded=0;" parent="UyC3MJAuwIzsb8hnh3Vk-118" edge="1">
          <mxGeometry width="50" height="50" relative="1" as="geometry">
            <mxPoint x="-10" y="10" as="sourcePoint" />
            <mxPoint x="-10" y="40" as="targetPoint" />
          </mxGeometry>
        </mxCell>
        <mxCell id="UyC3MJAuwIzsb8hnh3Vk-121" value="" style="endArrow=classic;startArrow=classic;html=1;rounded=0;" parent="UyC3MJAuwIzsb8hnh3Vk-117" edge="1">
          <mxGeometry width="50" height="50" relative="1" as="geometry">
            <mxPoint x="-10" y="10" as="sourcePoint" />
            <mxPoint x="40" y="60" as="targetPoint" />
          </mxGeometry>
        </mxCell>
        <mxCell id="UyC3MJAuwIzsb8hnh3Vk-122" value="" style="group" parent="UyC3MJAuwIzsb8hnh3Vk-133" vertex="1" connectable="0">
          <mxGeometry x="180" width="110" height="110" as="geometry" />
        </mxCell>
        <mxCell id="UyC3MJAuwIzsb8hnh3Vk-123" value="" style="group;rotation=-90;" parent="UyC3MJAuwIzsb8hnh3Vk-122" vertex="1" connectable="0">
          <mxGeometry x="10" y="-10" width="80" height="100" as="geometry" />
        </mxCell>
        <mxCell id="UyC3MJAuwIzsb8hnh3Vk-124" value="" style="group;rotation=-90;" parent="UyC3MJAuwIzsb8hnh3Vk-123" vertex="1" connectable="0">
          <mxGeometry width="30" height="50" as="geometry" />
        </mxCell>
        <mxCell id="UyC3MJAuwIzsb8hnh3Vk-125" value="" style="endArrow=none;html=1;rounded=0;" parent="UyC3MJAuwIzsb8hnh3Vk-124" edge="1">
          <mxGeometry width="50" height="50" relative="1" as="geometry">
            <mxPoint x="40" y="40" as="sourcePoint" />
            <mxPoint x="10" y="40" as="targetPoint" />
          </mxGeometry>
        </mxCell>
        <mxCell id="UyC3MJAuwIzsb8hnh3Vk-126" value="" style="endArrow=none;html=1;rounded=0;" parent="UyC3MJAuwIzsb8hnh3Vk-124" edge="1">
          <mxGeometry width="50" height="50" relative="1" as="geometry">
            <mxPoint x="40" y="40" as="sourcePoint" />
            <mxPoint x="40" y="10" as="targetPoint" />
          </mxGeometry>
        </mxCell>
        <mxCell id="UyC3MJAuwIzsb8hnh3Vk-127" value="" style="endArrow=classic;startArrow=classic;html=1;rounded=0;" parent="UyC3MJAuwIzsb8hnh3Vk-123" edge="1">
          <mxGeometry width="50" height="50" relative="1" as="geometry">
            <mxPoint x="90" y="90" as="sourcePoint" />
            <mxPoint x="40" y="40" as="targetPoint" />
          </mxGeometry>
        </mxCell>
        <mxCell id="UyC3MJAuwIzsb8hnh3Vk-128" value="" style="group;rotation=90;" parent="UyC3MJAuwIzsb8hnh3Vk-122" vertex="1" connectable="0">
          <mxGeometry x="20" y="20" width="80" height="100" as="geometry" />
        </mxCell>
        <mxCell id="UyC3MJAuwIzsb8hnh3Vk-129" value="" style="group;rotation=90;" parent="UyC3MJAuwIzsb8hnh3Vk-128" vertex="1" connectable="0">
          <mxGeometry x="50" y="50" width="30" height="50" as="geometry" />
        </mxCell>
        <mxCell id="UyC3MJAuwIzsb8hnh3Vk-130" value="" style="endArrow=none;html=1;rounded=0;" parent="UyC3MJAuwIzsb8hnh3Vk-129" edge="1">
          <mxGeometry width="50" height="50" relative="1" as="geometry">
            <mxPoint x="-10" y="10" as="sourcePoint" />
            <mxPoint x="20" y="10" as="targetPoint" />
          </mxGeometry>
        </mxCell>
        <mxCell id="UyC3MJAuwIzsb8hnh3Vk-131" value="" style="endArrow=none;html=1;rounded=0;" parent="UyC3MJAuwIzsb8hnh3Vk-129" edge="1">
          <mxGeometry width="50" height="50" relative="1" as="geometry">
            <mxPoint x="-10" y="10" as="sourcePoint" />
            <mxPoint x="-10" y="40" as="targetPoint" />
          </mxGeometry>
        </mxCell>
        <mxCell id="UyC3MJAuwIzsb8hnh3Vk-132" value="" style="endArrow=classic;startArrow=classic;html=1;rounded=0;" parent="UyC3MJAuwIzsb8hnh3Vk-128" edge="1">
          <mxGeometry width="50" height="50" relative="1" as="geometry">
            <mxPoint x="-10" y="10" as="sourcePoint" />
            <mxPoint x="40" y="60" as="targetPoint" />
          </mxGeometry>
        </mxCell>
        <mxCell id="UyC3MJAuwIzsb8hnh3Vk-191" value="" style="group;rotation=-180;" parent="1" vertex="1" connectable="0">
          <mxGeometry x="117" y="472" width="120" height="110" as="geometry" />
        </mxCell>
        <mxCell id="UyC3MJAuwIzsb8hnh3Vk-181" value="" style="group;rotation=-270;" parent="UyC3MJAuwIzsb8hnh3Vk-191" vertex="1" connectable="0">
          <mxGeometry x="32.72727272727273" y="20" width="87.27272727272727" height="100" as="geometry" />
        </mxCell>
        <mxCell id="UyC3MJAuwIzsb8hnh3Vk-182" value="" style="group;rotation=-270;" parent="UyC3MJAuwIzsb8hnh3Vk-181" vertex="1" connectable="0">
          <mxGeometry x="54.54545454545454" y="50" width="32.72727272727273" height="50" as="geometry" />
        </mxCell>
        <mxCell id="UyC3MJAuwIzsb8hnh3Vk-183" value="" style="endArrow=none;html=1;rounded=0;" parent="UyC3MJAuwIzsb8hnh3Vk-182" edge="1">
          <mxGeometry width="50" height="50" relative="1" as="geometry">
            <mxPoint x="-10.909090909090908" y="10" as="sourcePoint" />
            <mxPoint x="21.818181818181817" y="10" as="targetPoint" />
          </mxGeometry>
        </mxCell>
        <mxCell id="UyC3MJAuwIzsb8hnh3Vk-184" value="" style="endArrow=none;html=1;rounded=0;" parent="UyC3MJAuwIzsb8hnh3Vk-182" edge="1">
          <mxGeometry width="50" height="50" relative="1" as="geometry">
            <mxPoint x="-10.909090909090908" y="10" as="sourcePoint" />
            <mxPoint x="-10.909090909090908" y="40" as="targetPoint" />
          </mxGeometry>
        </mxCell>
        <mxCell id="UyC3MJAuwIzsb8hnh3Vk-185" value="" style="endArrow=classic;startArrow=classic;html=1;rounded=0;" parent="UyC3MJAuwIzsb8hnh3Vk-181" edge="1">
          <mxGeometry width="50" height="50" relative="1" as="geometry">
            <mxPoint x="-10.909090909090908" y="10" as="sourcePoint" />
            <mxPoint x="43.63636363636363" y="60" as="targetPoint" />
          </mxGeometry>
        </mxCell>
        <mxCell id="UyC3MJAuwIzsb8hnh3Vk-186" value="" style="group;rotation=-90;" parent="UyC3MJAuwIzsb8hnh3Vk-191" vertex="1" connectable="0">
          <mxGeometry x="21.818181818181817" y="-10" width="87.27272727272727" height="100" as="geometry" />
        </mxCell>
        <mxCell id="UyC3MJAuwIzsb8hnh3Vk-187" value="" style="group;rotation=-90;" parent="UyC3MJAuwIzsb8hnh3Vk-186" vertex="1" connectable="0">
          <mxGeometry width="32.72727272727273" height="50" as="geometry" />
        </mxCell>
        <mxCell id="UyC3MJAuwIzsb8hnh3Vk-188" value="" style="endArrow=none;html=1;rounded=0;" parent="UyC3MJAuwIzsb8hnh3Vk-187" edge="1">
          <mxGeometry width="50" height="50" relative="1" as="geometry">
            <mxPoint x="43.63636363636363" y="40" as="sourcePoint" />
            <mxPoint x="10.909090909090908" y="40" as="targetPoint" />
          </mxGeometry>
        </mxCell>
        <mxCell id="UyC3MJAuwIzsb8hnh3Vk-189" value="" style="endArrow=none;html=1;rounded=0;" parent="UyC3MJAuwIzsb8hnh3Vk-187" edge="1">
          <mxGeometry width="50" height="50" relative="1" as="geometry">
            <mxPoint x="43.63636363636363" y="40" as="sourcePoint" />
            <mxPoint x="43.63636363636363" y="10" as="targetPoint" />
          </mxGeometry>
        </mxCell>
        <mxCell id="UyC3MJAuwIzsb8hnh3Vk-190" value="" style="endArrow=classic;startArrow=classic;html=1;rounded=0;" parent="UyC3MJAuwIzsb8hnh3Vk-186" edge="1">
          <mxGeometry width="50" height="50" relative="1" as="geometry">
            <mxPoint x="98.18181818181817" y="90" as="sourcePoint" />
            <mxPoint x="43.63636363636363" y="40" as="targetPoint" />
          </mxGeometry>
        </mxCell>
        <mxCell id="UyC3MJAuwIzsb8hnh3Vk-192" value="" style="group" parent="1" vertex="1" connectable="0">
          <mxGeometry x="40" y="429" width="110" height="180" as="geometry" />
        </mxCell>
        <mxCell id="UyC3MJAuwIzsb8hnh3Vk-193" value="" style="group;rotation=-90;" parent="UyC3MJAuwIzsb8hnh3Vk-192" vertex="1" connectable="0">
          <mxGeometry x="10" y="-10" width="80" height="100" as="geometry" />
        </mxCell>
        <mxCell id="UyC3MJAuwIzsb8hnh3Vk-194" value="" style="group;rotation=-90;" parent="UyC3MJAuwIzsb8hnh3Vk-193" vertex="1" connectable="0">
          <mxGeometry width="30" height="50" as="geometry" />
        </mxCell>
        <mxCell id="UyC3MJAuwIzsb8hnh3Vk-195" value="" style="endArrow=none;html=1;rounded=0;" parent="UyC3MJAuwIzsb8hnh3Vk-194" edge="1">
          <mxGeometry width="50" height="50" relative="1" as="geometry">
            <mxPoint x="40" y="40" as="sourcePoint" />
            <mxPoint x="10" y="40" as="targetPoint" />
          </mxGeometry>
        </mxCell>
        <mxCell id="UyC3MJAuwIzsb8hnh3Vk-196" value="" style="endArrow=none;html=1;rounded=0;" parent="UyC3MJAuwIzsb8hnh3Vk-194" edge="1">
          <mxGeometry width="50" height="50" relative="1" as="geometry">
            <mxPoint x="40" y="40" as="sourcePoint" />
            <mxPoint x="40" y="10" as="targetPoint" />
          </mxGeometry>
        </mxCell>
        <mxCell id="UyC3MJAuwIzsb8hnh3Vk-197" value="" style="endArrow=classic;startArrow=classic;html=1;rounded=0;" parent="UyC3MJAuwIzsb8hnh3Vk-193" edge="1">
          <mxGeometry width="50" height="50" relative="1" as="geometry">
            <mxPoint x="90" y="90" as="sourcePoint" />
            <mxPoint x="40" y="40" as="targetPoint" />
          </mxGeometry>
        </mxCell>
        <mxCell id="UyC3MJAuwIzsb8hnh3Vk-198" value="" style="group;rotation=90;" parent="UyC3MJAuwIzsb8hnh3Vk-192" vertex="1" connectable="0">
          <mxGeometry x="20" y="20" width="80" height="160" as="geometry" />
        </mxCell>
        <mxCell id="UyC3MJAuwIzsb8hnh3Vk-199" value="" style="group;rotation=90;" parent="UyC3MJAuwIzsb8hnh3Vk-198" vertex="1" connectable="0">
          <mxGeometry x="50" y="50" width="30" height="50" as="geometry" />
        </mxCell>
        <mxCell id="UyC3MJAuwIzsb8hnh3Vk-200" value="" style="endArrow=none;html=1;rounded=0;" parent="UyC3MJAuwIzsb8hnh3Vk-199" edge="1">
          <mxGeometry width="50" height="50" relative="1" as="geometry">
            <mxPoint x="-10" y="10" as="sourcePoint" />
            <mxPoint x="20" y="10" as="targetPoint" />
          </mxGeometry>
        </mxCell>
        <mxCell id="UyC3MJAuwIzsb8hnh3Vk-201" value="" style="endArrow=none;html=1;rounded=0;" parent="UyC3MJAuwIzsb8hnh3Vk-199" edge="1">
          <mxGeometry width="50" height="50" relative="1" as="geometry">
            <mxPoint x="-10" y="10" as="sourcePoint" />
            <mxPoint x="-10" y="40" as="targetPoint" />
          </mxGeometry>
        </mxCell>
        <mxCell id="UyC3MJAuwIzsb8hnh3Vk-202" value="" style="endArrow=classic;startArrow=classic;html=1;rounded=0;" parent="UyC3MJAuwIzsb8hnh3Vk-198" edge="1">
          <mxGeometry width="50" height="50" relative="1" as="geometry">
            <mxPoint x="-10" y="10" as="sourcePoint" />
            <mxPoint x="40" y="60" as="targetPoint" />
          </mxGeometry>
        </mxCell>
        <mxCell id="UyC3MJAuwIzsb8hnh3Vk-203" value="" style="group" parent="1" vertex="1" connectable="0">
          <mxGeometry x="77" y="380" width="110" height="110" as="geometry" />
        </mxCell>
        <mxCell id="UyC3MJAuwIzsb8hnh3Vk-204" value="" style="group;rotation=-90;" parent="UyC3MJAuwIzsb8hnh3Vk-203" vertex="1" connectable="0">
          <mxGeometry x="10" y="-10" width="80" height="100" as="geometry" />
        </mxCell>
        <mxCell id="UyC3MJAuwIzsb8hnh3Vk-205" value="" style="group;rotation=-90;" parent="UyC3MJAuwIzsb8hnh3Vk-204" vertex="1" connectable="0">
          <mxGeometry width="30" height="50" as="geometry" />
        </mxCell>
        <mxCell id="UyC3MJAuwIzsb8hnh3Vk-206" value="" style="endArrow=none;html=1;rounded=0;" parent="UyC3MJAuwIzsb8hnh3Vk-205" edge="1">
          <mxGeometry width="50" height="50" relative="1" as="geometry">
            <mxPoint x="40" y="40" as="sourcePoint" />
            <mxPoint x="10" y="40" as="targetPoint" />
          </mxGeometry>
        </mxCell>
        <mxCell id="UyC3MJAuwIzsb8hnh3Vk-207" value="" style="endArrow=none;html=1;rounded=0;" parent="UyC3MJAuwIzsb8hnh3Vk-205" edge="1">
          <mxGeometry width="50" height="50" relative="1" as="geometry">
            <mxPoint x="40" y="40" as="sourcePoint" />
            <mxPoint x="40" y="10" as="targetPoint" />
          </mxGeometry>
        </mxCell>
        <mxCell id="UyC3MJAuwIzsb8hnh3Vk-208" value="" style="endArrow=classic;startArrow=classic;html=1;rounded=0;" parent="UyC3MJAuwIzsb8hnh3Vk-204" edge="1">
          <mxGeometry width="50" height="50" relative="1" as="geometry">
            <mxPoint x="90" y="90" as="sourcePoint" />
            <mxPoint x="40" y="40" as="targetPoint" />
          </mxGeometry>
        </mxCell>
        <mxCell id="UyC3MJAuwIzsb8hnh3Vk-209" value="" style="group;rotation=90;" parent="UyC3MJAuwIzsb8hnh3Vk-203" vertex="1" connectable="0">
          <mxGeometry x="20" y="20" width="80" height="100" as="geometry" />
        </mxCell>
        <mxCell id="UyC3MJAuwIzsb8hnh3Vk-210" value="" style="group;rotation=90;" parent="UyC3MJAuwIzsb8hnh3Vk-209" vertex="1" connectable="0">
          <mxGeometry x="50" y="50" width="30" height="50" as="geometry" />
        </mxCell>
        <mxCell id="UyC3MJAuwIzsb8hnh3Vk-211" value="" style="endArrow=none;html=1;rounded=0;" parent="UyC3MJAuwIzsb8hnh3Vk-210" edge="1">
          <mxGeometry width="50" height="50" relative="1" as="geometry">
            <mxPoint x="-10" y="10" as="sourcePoint" />
            <mxPoint x="20" y="10" as="targetPoint" />
          </mxGeometry>
        </mxCell>
        <mxCell id="UyC3MJAuwIzsb8hnh3Vk-212" value="" style="endArrow=none;html=1;rounded=0;" parent="UyC3MJAuwIzsb8hnh3Vk-210" edge="1">
          <mxGeometry width="50" height="50" relative="1" as="geometry">
            <mxPoint x="-10" y="10" as="sourcePoint" />
            <mxPoint x="-10" y="40" as="targetPoint" />
          </mxGeometry>
        </mxCell>
        <mxCell id="UyC3MJAuwIzsb8hnh3Vk-213" value="" style="endArrow=classic;startArrow=classic;html=1;rounded=0;" parent="UyC3MJAuwIzsb8hnh3Vk-209" edge="1">
          <mxGeometry width="50" height="50" relative="1" as="geometry">
            <mxPoint x="-10" y="10" as="sourcePoint" />
            <mxPoint x="40" y="60" as="targetPoint" />
          </mxGeometry>
        </mxCell>
        <mxCell id="UyC3MJAuwIzsb8hnh3Vk-214" value="" style="group;rotation=-180;" parent="1" vertex="1" connectable="0">
          <mxGeometry x="155" y="432" width="210" height="170" as="geometry" />
        </mxCell>
        <mxCell id="UyC3MJAuwIzsb8hnh3Vk-215" value="" style="group;rotation=-270;" parent="UyC3MJAuwIzsb8hnh3Vk-214" vertex="1" connectable="0">
          <mxGeometry x="32.72727272727273" y="20" width="134.5427272727272" height="150" as="geometry" />
        </mxCell>
        <mxCell id="UyC3MJAuwIzsb8hnh3Vk-216" value="" style="group;rotation=-270;" parent="UyC3MJAuwIzsb8hnh3Vk-215" vertex="1" connectable="0">
          <mxGeometry x="54.54545454545454" y="50" width="79.99727272727267" height="100" as="geometry" />
        </mxCell>
        <mxCell id="UyC3MJAuwIzsb8hnh3Vk-217" value="" style="endArrow=none;html=1;rounded=0;" parent="UyC3MJAuwIzsb8hnh3Vk-216" edge="1">
          <mxGeometry width="50" height="50" relative="1" as="geometry">
            <mxPoint x="-10.909090909090908" y="10" as="sourcePoint" />
            <mxPoint x="21.818181818181817" y="10" as="targetPoint" />
          </mxGeometry>
        </mxCell>
        <mxCell id="UyC3MJAuwIzsb8hnh3Vk-218" value="" style="endArrow=none;html=1;rounded=0;" parent="UyC3MJAuwIzsb8hnh3Vk-216" edge="1">
          <mxGeometry width="50" height="50" relative="1" as="geometry">
            <mxPoint x="-10.909090909090908" y="10" as="sourcePoint" />
            <mxPoint x="-10.909090909090908" y="40" as="targetPoint" />
          </mxGeometry>
        </mxCell>
        <mxCell id="UyC3MJAuwIzsb8hnh3Vk-219" value="" style="endArrow=classic;startArrow=classic;html=1;rounded=0;" parent="UyC3MJAuwIzsb8hnh3Vk-215" edge="1">
          <mxGeometry width="50" height="50" relative="1" as="geometry">
            <mxPoint x="-10.909090909090908" y="10" as="sourcePoint" />
            <mxPoint x="43.63636363636363" y="60" as="targetPoint" />
          </mxGeometry>
        </mxCell>
        <mxCell id="UyC3MJAuwIzsb8hnh3Vk-220" value="" style="group;rotation=-90;" parent="UyC3MJAuwIzsb8hnh3Vk-214" vertex="1" connectable="0">
          <mxGeometry x="21.818181818181817" y="-10" width="87.27272727272727" height="100" as="geometry" />
        </mxCell>
        <mxCell id="UyC3MJAuwIzsb8hnh3Vk-221" value="" style="group;rotation=-90;" parent="UyC3MJAuwIzsb8hnh3Vk-220" vertex="1" connectable="0">
          <mxGeometry width="32.72727272727273" height="50" as="geometry" />
        </mxCell>
        <mxCell id="UyC3MJAuwIzsb8hnh3Vk-222" value="" style="endArrow=none;html=1;rounded=0;" parent="UyC3MJAuwIzsb8hnh3Vk-221" edge="1">
          <mxGeometry width="50" height="50" relative="1" as="geometry">
            <mxPoint x="43.63636363636363" y="40" as="sourcePoint" />
            <mxPoint x="10.909090909090908" y="40" as="targetPoint" />
          </mxGeometry>
        </mxCell>
        <mxCell id="UyC3MJAuwIzsb8hnh3Vk-223" value="" style="endArrow=none;html=1;rounded=0;" parent="UyC3MJAuwIzsb8hnh3Vk-221" edge="1">
          <mxGeometry width="50" height="50" relative="1" as="geometry">
            <mxPoint x="43.63636363636363" y="40" as="sourcePoint" />
            <mxPoint x="43.63636363636363" y="10" as="targetPoint" />
          </mxGeometry>
        </mxCell>
        <mxCell id="UyC3MJAuwIzsb8hnh3Vk-224" value="" style="endArrow=classic;startArrow=classic;html=1;rounded=0;" parent="UyC3MJAuwIzsb8hnh3Vk-220" edge="1">
          <mxGeometry width="50" height="50" relative="1" as="geometry">
            <mxPoint x="98.18181818181817" y="90" as="sourcePoint" />
            <mxPoint x="43.63636363636363" y="40" as="targetPoint" />
          </mxGeometry>
        </mxCell>
        <mxCell id="UyC3MJAuwIzsb8hnh3Vk-254" value="" style="endArrow=classic;startArrow=classic;html=1;rounded=0;" parent="1" edge="1">
          <mxGeometry width="50" height="50" relative="1" as="geometry">
            <mxPoint x="556.1818181818182" y="522" as="sourcePoint" />
            <mxPoint x="501.6363636363636" y="472" as="targetPoint" />
          </mxGeometry>
        </mxCell>
        <mxCell id="UyC3MJAuwIzsb8hnh3Vk-255" value="" style="endArrow=classic;startArrow=classic;html=1;rounded=0;" parent="1" edge="1">
          <mxGeometry width="50" height="50" relative="1" as="geometry">
            <mxPoint x="458" y="472" as="sourcePoint" />
            <mxPoint x="512.5454545454545" y="522" as="targetPoint" />
          </mxGeometry>
        </mxCell>
        <mxCell id="UyC3MJAuwIzsb8hnh3Vk-256" value="" style="endArrow=none;html=1;rounded=0;" parent="1" edge="1">
          <mxGeometry width="50" height="50" relative="1" as="geometry">
            <mxPoint x="512.5454545454545" y="522" as="sourcePoint" />
            <mxPoint x="545.2727272727273" y="522" as="targetPoint" />
          </mxGeometry>
        </mxCell>
        <mxCell id="UyC3MJAuwIzsb8hnh3Vk-257" value="" style="endArrow=none;html=1;rounded=0;" parent="1" edge="1">
          <mxGeometry width="50" height="50" relative="1" as="geometry">
            <mxPoint x="512.5454545454545" y="522" as="sourcePoint" />
            <mxPoint x="512.5454545454545" y="552" as="targetPoint" />
          </mxGeometry>
        </mxCell>
        <mxCell id="UyC3MJAuwIzsb8hnh3Vk-258" value="" style="endArrow=classic;startArrow=classic;html=1;rounded=0;" parent="1" edge="1">
          <mxGeometry width="50" height="50" relative="1" as="geometry">
            <mxPoint x="420" y="512" as="sourcePoint" />
            <mxPoint x="474.5454545454545" y="562" as="targetPoint" />
          </mxGeometry>
        </mxCell>
        <mxCell id="UyC3MJAuwIzsb8hnh3Vk-259" value="" style="endArrow=none;html=1;rounded=0;" parent="1" edge="1">
          <mxGeometry width="50" height="50" relative="1" as="geometry">
            <mxPoint x="474.5454545454545" y="562" as="sourcePoint" />
            <mxPoint x="507.27272727272725" y="562" as="targetPoint" />
          </mxGeometry>
        </mxCell>
        <mxCell id="UyC3MJAuwIzsb8hnh3Vk-260" value="" style="endArrow=none;html=1;rounded=0;" parent="1" edge="1">
          <mxGeometry width="50" height="50" relative="1" as="geometry">
            <mxPoint x="474.5454545454545" y="562" as="sourcePoint" />
            <mxPoint x="474.5454545454545" y="592" as="targetPoint" />
          </mxGeometry>
        </mxCell>
        <mxCell id="UyC3MJAuwIzsb8hnh3Vk-261" value="" style="endArrow=classic;startArrow=classic;html=1;rounded=0;" parent="1" edge="1">
          <mxGeometry width="50" height="50" relative="1" as="geometry">
            <mxPoint x="518.1818181818182" y="562" as="sourcePoint" />
            <mxPoint x="463.6363636363636" y="512" as="targetPoint" />
          </mxGeometry>
        </mxCell>
        <mxCell id="UyC3MJAuwIzsb8hnh3Vk-262" value="" style="endArrow=none;html=1;rounded=0;" parent="1" edge="1">
          <mxGeometry width="50" height="50" relative="1" as="geometry">
            <mxPoint x="463.6363636363636" y="512" as="sourcePoint" />
            <mxPoint x="430.9090909090909" y="512" as="targetPoint" />
          </mxGeometry>
        </mxCell>
        <mxCell id="UyC3MJAuwIzsb8hnh3Vk-263" value="" style="endArrow=none;html=1;rounded=0;" parent="1" edge="1">
          <mxGeometry width="50" height="50" relative="1" as="geometry">
            <mxPoint x="463.6363636363636" y="512" as="sourcePoint" />
            <mxPoint x="463.6363636363636" y="482" as="targetPoint" />
          </mxGeometry>
        </mxCell>
        <mxCell id="UyC3MJAuwIzsb8hnh3Vk-264" value="" style="endArrow=none;html=1;rounded=0;" parent="1" edge="1">
          <mxGeometry width="50" height="50" relative="1" as="geometry">
            <mxPoint x="501.6363636363636" y="472" as="sourcePoint" />
            <mxPoint x="468.9090909090909" y="472" as="targetPoint" />
          </mxGeometry>
        </mxCell>
        <mxCell id="UyC3MJAuwIzsb8hnh3Vk-265" value="" style="endArrow=none;html=1;rounded=0;" parent="1" edge="1">
          <mxGeometry width="50" height="50" relative="1" as="geometry">
            <mxPoint x="501.6363636363636" y="472" as="sourcePoint" />
            <mxPoint x="501.6363636363636" y="442" as="targetPoint" />
          </mxGeometry>
        </mxCell>
        <mxCell id="UyC3MJAuwIzsb8hnh3Vk-266" value="" style="endArrow=classic;startArrow=classic;html=1;rounded=0;" parent="1" edge="1">
          <mxGeometry width="50" height="50" relative="1" as="geometry">
            <mxPoint x="590.7318181818182" y="482" as="sourcePoint" />
            <mxPoint x="540.7318181818182" y="432" as="targetPoint" />
          </mxGeometry>
        </mxCell>
        <mxCell id="UyC3MJAuwIzsb8hnh3Vk-267" value="" style="endArrow=none;html=1;rounded=0;" parent="1" edge="1">
          <mxGeometry width="50" height="50" relative="1" as="geometry">
            <mxPoint x="540.7318181818182" y="432" as="sourcePoint" />
            <mxPoint x="510.7318181818182" y="432" as="targetPoint" />
          </mxGeometry>
        </mxCell>
        <mxCell id="UyC3MJAuwIzsb8hnh3Vk-268" value="" style="endArrow=none;html=1;rounded=0;" parent="1" edge="1">
          <mxGeometry width="50" height="50" relative="1" as="geometry">
            <mxPoint x="540.7318181818182" y="432" as="sourcePoint" />
            <mxPoint x="540.7318181818182" y="402" as="targetPoint" />
          </mxGeometry>
        </mxCell>
        <mxCell id="UyC3MJAuwIzsb8hnh3Vk-269" value="" style="endArrow=classic;startArrow=classic;html=1;rounded=0;" parent="1" edge="1">
          <mxGeometry width="50" height="50" relative="1" as="geometry">
            <mxPoint x="630.7318181818182" y="450" as="sourcePoint" />
            <mxPoint x="580.7318181818182" y="400" as="targetPoint" />
          </mxGeometry>
        </mxCell>
        <mxCell id="UyC3MJAuwIzsb8hnh3Vk-270" value="" style="endArrow=none;html=1;rounded=0;" parent="1" edge="1">
          <mxGeometry width="50" height="50" relative="1" as="geometry">
            <mxPoint x="580.7318181818182" y="400" as="sourcePoint" />
            <mxPoint x="550.7318181818182" y="400" as="targetPoint" />
          </mxGeometry>
        </mxCell>
        <mxCell id="UyC3MJAuwIzsb8hnh3Vk-271" value="" style="endArrow=none;html=1;rounded=0;" parent="1" edge="1">
          <mxGeometry width="50" height="50" relative="1" as="geometry">
            <mxPoint x="580.7318181818182" y="400" as="sourcePoint" />
            <mxPoint x="580.7318181818182" y="370" as="targetPoint" />
          </mxGeometry>
        </mxCell>
        <mxCell id="UyC3MJAuwIzsb8hnh3Vk-272" value="" style="endArrow=classic;startArrow=classic;html=1;rounded=0;" parent="1" edge="1">
          <mxGeometry width="50" height="50" relative="1" as="geometry">
            <mxPoint x="540.7318181818182" y="400" as="sourcePoint" />
            <mxPoint x="590.7318181818182" y="450" as="targetPoint" />
          </mxGeometry>
        </mxCell>
        <mxCell id="UyC3MJAuwIzsb8hnh3Vk-273" value="" style="endArrow=none;html=1;rounded=0;" parent="1" edge="1">
          <mxGeometry width="50" height="50" relative="1" as="geometry">
            <mxPoint x="590.7318181818182" y="450" as="sourcePoint" />
            <mxPoint x="620.7318181818182" y="450" as="targetPoint" />
          </mxGeometry>
        </mxCell>
        <mxCell id="UyC3MJAuwIzsb8hnh3Vk-274" value="" style="endArrow=none;html=1;rounded=0;" parent="1" edge="1">
          <mxGeometry width="50" height="50" relative="1" as="geometry">
            <mxPoint x="590.7318181818182" y="450" as="sourcePoint" />
            <mxPoint x="590.7318181818182" y="480" as="targetPoint" />
          </mxGeometry>
        </mxCell>
        <mxCell id="UyC3MJAuwIzsb8hnh3Vk-275" value="" style="endArrow=classic;startArrow=classic;html=1;rounded=0;" parent="1" edge="1">
          <mxGeometry width="50" height="50" relative="1" as="geometry">
            <mxPoint x="500.7318181818182" y="432" as="sourcePoint" />
            <mxPoint x="550.7318181818182" y="482" as="targetPoint" />
          </mxGeometry>
        </mxCell>
        <mxCell id="UyC3MJAuwIzsb8hnh3Vk-276" value="" style="endArrow=none;html=1;rounded=0;" parent="1" edge="1">
          <mxGeometry width="50" height="50" relative="1" as="geometry">
            <mxPoint x="550.7318181818182" y="482" as="sourcePoint" />
            <mxPoint x="580.7318181818182" y="482" as="targetPoint" />
          </mxGeometry>
        </mxCell>
        <mxCell id="UyC3MJAuwIzsb8hnh3Vk-277" value="" style="endArrow=none;html=1;rounded=0;" parent="1" edge="1">
          <mxGeometry width="50" height="50" relative="1" as="geometry">
            <mxPoint x="550.7318181818182" y="482" as="sourcePoint" />
            <mxPoint x="550.7318181818182" y="512" as="targetPoint" />
          </mxGeometry>
        </mxCell>
        <mxCell id="kRPh3oYMZlDsI1UbofoG-1" value="" style="endArrow=classic;startArrow=classic;html=1;rounded=0;" edge="1" parent="1">
          <mxGeometry width="50" height="50" relative="1" as="geometry">
            <mxPoint x="326.1818181818182" y="872" as="sourcePoint" />
            <mxPoint x="271.6363636363636" y="822" as="targetPoint" />
          </mxGeometry>
        </mxCell>
        <mxCell id="kRPh3oYMZlDsI1UbofoG-2" value="" style="endArrow=classic;startArrow=classic;html=1;rounded=0;" edge="1" parent="1">
          <mxGeometry width="50" height="50" relative="1" as="geometry">
            <mxPoint x="228" y="822" as="sourcePoint" />
            <mxPoint x="282.5454545454545" y="872" as="targetPoint" />
          </mxGeometry>
        </mxCell>
        <mxCell id="kRPh3oYMZlDsI1UbofoG-3" value="" style="endArrow=none;html=1;rounded=0;" edge="1" parent="1">
          <mxGeometry width="50" height="50" relative="1" as="geometry">
            <mxPoint x="282.5454545454545" y="872" as="sourcePoint" />
            <mxPoint x="315.27272727272725" y="872" as="targetPoint" />
          </mxGeometry>
        </mxCell>
        <mxCell id="kRPh3oYMZlDsI1UbofoG-4" value="" style="endArrow=none;html=1;rounded=0;" edge="1" parent="1">
          <mxGeometry width="50" height="50" relative="1" as="geometry">
            <mxPoint x="282.5454545454545" y="872" as="sourcePoint" />
            <mxPoint x="282.5454545454545" y="902" as="targetPoint" />
          </mxGeometry>
        </mxCell>
        <mxCell id="kRPh3oYMZlDsI1UbofoG-5" value="" style="endArrow=classic;startArrow=classic;html=1;rounded=0;" edge="1" parent="1">
          <mxGeometry width="50" height="50" relative="1" as="geometry">
            <mxPoint x="190" y="862" as="sourcePoint" />
            <mxPoint x="244.54545454545453" y="912" as="targetPoint" />
          </mxGeometry>
        </mxCell>
        <mxCell id="kRPh3oYMZlDsI1UbofoG-6" value="" style="endArrow=none;html=1;rounded=0;" edge="1" parent="1">
          <mxGeometry width="50" height="50" relative="1" as="geometry">
            <mxPoint x="244.54545454545453" y="912" as="sourcePoint" />
            <mxPoint x="277.27272727272725" y="912" as="targetPoint" />
          </mxGeometry>
        </mxCell>
        <mxCell id="kRPh3oYMZlDsI1UbofoG-7" value="" style="endArrow=none;html=1;rounded=0;" edge="1" parent="1">
          <mxGeometry width="50" height="50" relative="1" as="geometry">
            <mxPoint x="244.54545454545453" y="912" as="sourcePoint" />
            <mxPoint x="244.54545454545453" y="942" as="targetPoint" />
          </mxGeometry>
        </mxCell>
        <mxCell id="kRPh3oYMZlDsI1UbofoG-8" value="" style="endArrow=classic;startArrow=classic;html=1;rounded=0;" edge="1" parent="1">
          <mxGeometry width="50" height="50" relative="1" as="geometry">
            <mxPoint x="288.1818181818182" y="912" as="sourcePoint" />
            <mxPoint x="233.63636363636363" y="862" as="targetPoint" />
          </mxGeometry>
        </mxCell>
        <mxCell id="kRPh3oYMZlDsI1UbofoG-9" value="" style="endArrow=none;html=1;rounded=0;" edge="1" parent="1">
          <mxGeometry width="50" height="50" relative="1" as="geometry">
            <mxPoint x="233.63636363636363" y="862" as="sourcePoint" />
            <mxPoint x="200.9090909090909" y="862" as="targetPoint" />
          </mxGeometry>
        </mxCell>
        <mxCell id="kRPh3oYMZlDsI1UbofoG-10" value="" style="endArrow=none;html=1;rounded=0;" edge="1" parent="1">
          <mxGeometry width="50" height="50" relative="1" as="geometry">
            <mxPoint x="233.63636363636363" y="862" as="sourcePoint" />
            <mxPoint x="233.63636363636363" y="832" as="targetPoint" />
          </mxGeometry>
        </mxCell>
        <mxCell id="kRPh3oYMZlDsI1UbofoG-11" value="" style="endArrow=none;html=1;rounded=0;" edge="1" parent="1">
          <mxGeometry width="50" height="50" relative="1" as="geometry">
            <mxPoint x="271.6363636363636" y="822" as="sourcePoint" />
            <mxPoint x="238.9090909090909" y="822" as="targetPoint" />
          </mxGeometry>
        </mxCell>
        <mxCell id="kRPh3oYMZlDsI1UbofoG-12" value="" style="endArrow=none;html=1;rounded=0;" edge="1" parent="1">
          <mxGeometry width="50" height="50" relative="1" as="geometry">
            <mxPoint x="271.6363636363636" y="822" as="sourcePoint" />
            <mxPoint x="271.6363636363636" y="792" as="targetPoint" />
          </mxGeometry>
        </mxCell>
        <mxCell id="kRPh3oYMZlDsI1UbofoG-13" value="" style="endArrow=classic;startArrow=classic;html=1;rounded=0;" edge="1" parent="1">
          <mxGeometry width="50" height="50" relative="1" as="geometry">
            <mxPoint x="360.7318181818182" y="832" as="sourcePoint" />
            <mxPoint x="310.7318181818182" y="782" as="targetPoint" />
          </mxGeometry>
        </mxCell>
        <mxCell id="kRPh3oYMZlDsI1UbofoG-14" value="" style="endArrow=none;html=1;rounded=0;" edge="1" parent="1">
          <mxGeometry width="50" height="50" relative="1" as="geometry">
            <mxPoint x="310.7318181818182" y="782" as="sourcePoint" />
            <mxPoint x="280.7318181818182" y="782" as="targetPoint" />
          </mxGeometry>
        </mxCell>
        <mxCell id="kRPh3oYMZlDsI1UbofoG-15" value="" style="endArrow=none;html=1;rounded=0;" edge="1" parent="1">
          <mxGeometry width="50" height="50" relative="1" as="geometry">
            <mxPoint x="310.7318181818182" y="782" as="sourcePoint" />
            <mxPoint x="310.7318181818182" y="752" as="targetPoint" />
          </mxGeometry>
        </mxCell>
        <mxCell id="kRPh3oYMZlDsI1UbofoG-16" value="" style="endArrow=classic;startArrow=classic;html=1;rounded=0;" edge="1" parent="1">
          <mxGeometry width="50" height="50" relative="1" as="geometry">
            <mxPoint x="400.7318181818182" y="800" as="sourcePoint" />
            <mxPoint x="350.7318181818182" y="750" as="targetPoint" />
          </mxGeometry>
        </mxCell>
        <mxCell id="kRPh3oYMZlDsI1UbofoG-17" value="" style="endArrow=none;html=1;rounded=0;" edge="1" parent="1">
          <mxGeometry width="50" height="50" relative="1" as="geometry">
            <mxPoint x="350.7318181818182" y="750" as="sourcePoint" />
            <mxPoint x="320.7318181818182" y="750" as="targetPoint" />
          </mxGeometry>
        </mxCell>
        <mxCell id="kRPh3oYMZlDsI1UbofoG-18" value="" style="endArrow=none;html=1;rounded=0;" edge="1" parent="1">
          <mxGeometry width="50" height="50" relative="1" as="geometry">
            <mxPoint x="350.7318181818182" y="750" as="sourcePoint" />
            <mxPoint x="350.7318181818182" y="720" as="targetPoint" />
          </mxGeometry>
        </mxCell>
        <mxCell id="kRPh3oYMZlDsI1UbofoG-19" value="" style="endArrow=classic;startArrow=classic;html=1;rounded=0;" edge="1" parent="1">
          <mxGeometry width="50" height="50" relative="1" as="geometry">
            <mxPoint x="310.7318181818182" y="750" as="sourcePoint" />
            <mxPoint x="360.7318181818182" y="800" as="targetPoint" />
          </mxGeometry>
        </mxCell>
        <mxCell id="kRPh3oYMZlDsI1UbofoG-20" value="" style="endArrow=none;html=1;rounded=0;" edge="1" parent="1">
          <mxGeometry width="50" height="50" relative="1" as="geometry">
            <mxPoint x="360.7318181818182" y="800" as="sourcePoint" />
            <mxPoint x="390.7318181818182" y="800" as="targetPoint" />
          </mxGeometry>
        </mxCell>
        <mxCell id="kRPh3oYMZlDsI1UbofoG-21" value="" style="endArrow=none;html=1;rounded=0;" edge="1" parent="1">
          <mxGeometry width="50" height="50" relative="1" as="geometry">
            <mxPoint x="360.7318181818182" y="800" as="sourcePoint" />
            <mxPoint x="360.7318181818182" y="830" as="targetPoint" />
          </mxGeometry>
        </mxCell>
        <mxCell id="kRPh3oYMZlDsI1UbofoG-22" value="" style="endArrow=classic;startArrow=classic;html=1;rounded=0;" edge="1" parent="1">
          <mxGeometry width="50" height="50" relative="1" as="geometry">
            <mxPoint x="270.7318181818182" y="782" as="sourcePoint" />
            <mxPoint x="320.7318181818182" y="832" as="targetPoint" />
          </mxGeometry>
        </mxCell>
        <mxCell id="kRPh3oYMZlDsI1UbofoG-23" value="" style="endArrow=none;html=1;rounded=0;" edge="1" parent="1">
          <mxGeometry width="50" height="50" relative="1" as="geometry">
            <mxPoint x="320.7318181818182" y="832" as="sourcePoint" />
            <mxPoint x="350.7318181818182" y="832" as="targetPoint" />
          </mxGeometry>
        </mxCell>
        <mxCell id="kRPh3oYMZlDsI1UbofoG-24" value="" style="endArrow=none;html=1;rounded=0;" edge="1" parent="1">
          <mxGeometry width="50" height="50" relative="1" as="geometry">
            <mxPoint x="320.7318181818182" y="832" as="sourcePoint" />
            <mxPoint x="320.7318181818182" y="862" as="targetPoint" />
          </mxGeometry>
        </mxCell>
        <mxCell id="kRPh3oYMZlDsI1UbofoG-49" value="" style="group" vertex="1" connectable="0" parent="1">
          <mxGeometry x="460.0018181818182" y="780" width="130" height="142" as="geometry" />
        </mxCell>
        <mxCell id="kRPh3oYMZlDsI1UbofoG-37" value="" style="endArrow=classic;startArrow=classic;html=1;rounded=0;" edge="1" parent="kRPh3oYMZlDsI1UbofoG-49">
          <mxGeometry width="50" height="50" relative="1" as="geometry">
            <mxPoint x="90" y="112" as="sourcePoint" />
            <mxPoint x="40" y="62" as="targetPoint" />
          </mxGeometry>
        </mxCell>
        <mxCell id="kRPh3oYMZlDsI1UbofoG-38" value="" style="endArrow=none;html=1;rounded=0;" edge="1" parent="kRPh3oYMZlDsI1UbofoG-49">
          <mxGeometry width="50" height="50" relative="1" as="geometry">
            <mxPoint x="40" y="62" as="sourcePoint" />
            <mxPoint x="10" y="62" as="targetPoint" />
          </mxGeometry>
        </mxCell>
        <mxCell id="kRPh3oYMZlDsI1UbofoG-39" value="" style="endArrow=none;html=1;rounded=0;" edge="1" parent="kRPh3oYMZlDsI1UbofoG-49">
          <mxGeometry width="50" height="50" relative="1" as="geometry">
            <mxPoint x="40" y="62" as="sourcePoint" />
            <mxPoint x="40" y="32" as="targetPoint" />
          </mxGeometry>
        </mxCell>
        <mxCell id="kRPh3oYMZlDsI1UbofoG-40" value="" style="endArrow=classic;startArrow=classic;html=1;rounded=0;" edge="1" parent="kRPh3oYMZlDsI1UbofoG-49">
          <mxGeometry width="50" height="50" relative="1" as="geometry">
            <mxPoint x="130" y="80" as="sourcePoint" />
            <mxPoint x="80" y="30" as="targetPoint" />
          </mxGeometry>
        </mxCell>
        <mxCell id="kRPh3oYMZlDsI1UbofoG-41" value="" style="endArrow=none;html=1;rounded=0;" edge="1" parent="kRPh3oYMZlDsI1UbofoG-49">
          <mxGeometry width="50" height="50" relative="1" as="geometry">
            <mxPoint x="80" y="30" as="sourcePoint" />
            <mxPoint x="50" y="30" as="targetPoint" />
          </mxGeometry>
        </mxCell>
        <mxCell id="kRPh3oYMZlDsI1UbofoG-42" value="" style="endArrow=none;html=1;rounded=0;" edge="1" parent="kRPh3oYMZlDsI1UbofoG-49">
          <mxGeometry width="50" height="50" relative="1" as="geometry">
            <mxPoint x="80" y="30" as="sourcePoint" />
            <mxPoint x="80" as="targetPoint" />
          </mxGeometry>
        </mxCell>
        <mxCell id="kRPh3oYMZlDsI1UbofoG-43" value="" style="endArrow=classic;startArrow=classic;html=1;rounded=0;" edge="1" parent="kRPh3oYMZlDsI1UbofoG-49">
          <mxGeometry width="50" height="50" relative="1" as="geometry">
            <mxPoint x="40" y="30" as="sourcePoint" />
            <mxPoint x="90" y="80" as="targetPoint" />
          </mxGeometry>
        </mxCell>
        <mxCell id="kRPh3oYMZlDsI1UbofoG-44" value="" style="endArrow=none;html=1;rounded=0;" edge="1" parent="kRPh3oYMZlDsI1UbofoG-49">
          <mxGeometry width="50" height="50" relative="1" as="geometry">
            <mxPoint x="90" y="80" as="sourcePoint" />
            <mxPoint x="120" y="80" as="targetPoint" />
          </mxGeometry>
        </mxCell>
        <mxCell id="kRPh3oYMZlDsI1UbofoG-45" value="" style="endArrow=none;html=1;rounded=0;" edge="1" parent="kRPh3oYMZlDsI1UbofoG-49">
          <mxGeometry width="50" height="50" relative="1" as="geometry">
            <mxPoint x="90" y="80" as="sourcePoint" />
            <mxPoint x="90" y="110" as="targetPoint" />
          </mxGeometry>
        </mxCell>
        <mxCell id="kRPh3oYMZlDsI1UbofoG-46" value="" style="endArrow=classic;startArrow=classic;html=1;rounded=0;" edge="1" parent="kRPh3oYMZlDsI1UbofoG-49">
          <mxGeometry width="50" height="50" relative="1" as="geometry">
            <mxPoint y="62" as="sourcePoint" />
            <mxPoint x="50" y="112" as="targetPoint" />
          </mxGeometry>
        </mxCell>
        <mxCell id="kRPh3oYMZlDsI1UbofoG-47" value="" style="endArrow=none;html=1;rounded=0;" edge="1" parent="kRPh3oYMZlDsI1UbofoG-49">
          <mxGeometry width="50" height="50" relative="1" as="geometry">
            <mxPoint x="50" y="112" as="sourcePoint" />
            <mxPoint x="80" y="112" as="targetPoint" />
          </mxGeometry>
        </mxCell>
        <mxCell id="kRPh3oYMZlDsI1UbofoG-48" value="" style="endArrow=none;html=1;rounded=0;" edge="1" parent="kRPh3oYMZlDsI1UbofoG-49">
          <mxGeometry width="50" height="50" relative="1" as="geometry">
            <mxPoint x="50" y="112" as="sourcePoint" />
            <mxPoint x="50" y="142" as="targetPoint" />
          </mxGeometry>
        </mxCell>
        <mxCell id="kRPh3oYMZlDsI1UbofoG-50" value="" style="endArrow=classic;startArrow=classic;html=1;rounded=0;strokeColor=#9999FF;" edge="1" parent="1">
          <mxGeometry width="50" height="50" relative="1" as="geometry">
            <mxPoint x="510" y="930" as="sourcePoint" />
            <mxPoint x="540" y="780" as="targetPoint" />
          </mxGeometry>
        </mxCell>
        <mxCell id="kRPh3oYMZlDsI1UbofoG-65" value="" style="group" vertex="1" connectable="0" parent="1">
          <mxGeometry x="620.0018181818182" y="600" width="130" height="150" as="geometry" />
        </mxCell>
        <mxCell id="kRPh3oYMZlDsI1UbofoG-51" value="" style="group" vertex="1" connectable="0" parent="kRPh3oYMZlDsI1UbofoG-65">
          <mxGeometry width="130" height="142" as="geometry" />
        </mxCell>
        <mxCell id="kRPh3oYMZlDsI1UbofoG-52" value="" style="endArrow=classic;startArrow=classic;html=1;rounded=0;" edge="1" parent="kRPh3oYMZlDsI1UbofoG-51">
          <mxGeometry width="50" height="50" relative="1" as="geometry">
            <mxPoint x="90" y="112" as="sourcePoint" />
            <mxPoint x="40" y="62" as="targetPoint" />
          </mxGeometry>
        </mxCell>
        <mxCell id="kRPh3oYMZlDsI1UbofoG-53" value="" style="endArrow=none;html=1;rounded=0;" edge="1" parent="kRPh3oYMZlDsI1UbofoG-51">
          <mxGeometry width="50" height="50" relative="1" as="geometry">
            <mxPoint x="40" y="62" as="sourcePoint" />
            <mxPoint x="10" y="62" as="targetPoint" />
          </mxGeometry>
        </mxCell>
        <mxCell id="kRPh3oYMZlDsI1UbofoG-54" value="" style="endArrow=none;html=1;rounded=0;" edge="1" parent="kRPh3oYMZlDsI1UbofoG-51">
          <mxGeometry width="50" height="50" relative="1" as="geometry">
            <mxPoint x="40" y="62" as="sourcePoint" />
            <mxPoint x="40" y="32" as="targetPoint" />
          </mxGeometry>
        </mxCell>
        <mxCell id="kRPh3oYMZlDsI1UbofoG-55" value="" style="endArrow=classic;startArrow=classic;html=1;rounded=0;" edge="1" parent="kRPh3oYMZlDsI1UbofoG-51">
          <mxGeometry width="50" height="50" relative="1" as="geometry">
            <mxPoint x="130" y="80" as="sourcePoint" />
            <mxPoint x="80" y="30" as="targetPoint" />
          </mxGeometry>
        </mxCell>
        <mxCell id="kRPh3oYMZlDsI1UbofoG-56" value="" style="endArrow=none;html=1;rounded=0;" edge="1" parent="kRPh3oYMZlDsI1UbofoG-51">
          <mxGeometry width="50" height="50" relative="1" as="geometry">
            <mxPoint x="80" y="30" as="sourcePoint" />
            <mxPoint x="50" y="30" as="targetPoint" />
          </mxGeometry>
        </mxCell>
        <mxCell id="kRPh3oYMZlDsI1UbofoG-57" value="" style="endArrow=none;html=1;rounded=0;" edge="1" parent="kRPh3oYMZlDsI1UbofoG-51">
          <mxGeometry width="50" height="50" relative="1" as="geometry">
            <mxPoint x="80" y="30" as="sourcePoint" />
            <mxPoint x="80" as="targetPoint" />
          </mxGeometry>
        </mxCell>
        <mxCell id="kRPh3oYMZlDsI1UbofoG-58" value="" style="endArrow=classic;startArrow=classic;html=1;rounded=0;" edge="1" parent="kRPh3oYMZlDsI1UbofoG-51">
          <mxGeometry width="50" height="50" relative="1" as="geometry">
            <mxPoint x="40" y="30" as="sourcePoint" />
            <mxPoint x="90" y="80" as="targetPoint" />
          </mxGeometry>
        </mxCell>
        <mxCell id="kRPh3oYMZlDsI1UbofoG-59" value="" style="endArrow=none;html=1;rounded=0;" edge="1" parent="kRPh3oYMZlDsI1UbofoG-51">
          <mxGeometry width="50" height="50" relative="1" as="geometry">
            <mxPoint x="90" y="80" as="sourcePoint" />
            <mxPoint x="120" y="80" as="targetPoint" />
          </mxGeometry>
        </mxCell>
        <mxCell id="kRPh3oYMZlDsI1UbofoG-60" value="" style="endArrow=none;html=1;rounded=0;" edge="1" parent="kRPh3oYMZlDsI1UbofoG-51">
          <mxGeometry width="50" height="50" relative="1" as="geometry">
            <mxPoint x="90" y="80" as="sourcePoint" />
            <mxPoint x="90" y="110" as="targetPoint" />
          </mxGeometry>
        </mxCell>
        <mxCell id="kRPh3oYMZlDsI1UbofoG-61" value="" style="endArrow=classic;startArrow=classic;html=1;rounded=0;" edge="1" parent="kRPh3oYMZlDsI1UbofoG-51">
          <mxGeometry width="50" height="50" relative="1" as="geometry">
            <mxPoint y="62" as="sourcePoint" />
            <mxPoint x="50" y="112" as="targetPoint" />
          </mxGeometry>
        </mxCell>
        <mxCell id="kRPh3oYMZlDsI1UbofoG-62" value="" style="endArrow=none;html=1;rounded=0;" edge="1" parent="kRPh3oYMZlDsI1UbofoG-51">
          <mxGeometry width="50" height="50" relative="1" as="geometry">
            <mxPoint x="50" y="112" as="sourcePoint" />
            <mxPoint x="80" y="112" as="targetPoint" />
          </mxGeometry>
        </mxCell>
        <mxCell id="kRPh3oYMZlDsI1UbofoG-63" value="" style="endArrow=none;html=1;rounded=0;" edge="1" parent="kRPh3oYMZlDsI1UbofoG-51">
          <mxGeometry width="50" height="50" relative="1" as="geometry">
            <mxPoint x="50" y="112" as="sourcePoint" />
            <mxPoint x="50" y="142" as="targetPoint" />
          </mxGeometry>
        </mxCell>
        <mxCell id="kRPh3oYMZlDsI1UbofoG-64" value="" style="endArrow=classic;startArrow=classic;html=1;rounded=0;strokeColor=#CC6600;" edge="1" parent="kRPh3oYMZlDsI1UbofoG-65">
          <mxGeometry width="50" height="50" relative="1" as="geometry">
            <mxPoint x="49.99818181818182" y="150" as="sourcePoint" />
            <mxPoint x="79.99818181818182" as="targetPoint" />
          </mxGeometry>
        </mxCell>
        <mxCell id="kRPh3oYMZlDsI1UbofoG-66" value="Text" style="edgeLabel;html=1;align=center;verticalAlign=middle;resizable=0;points=[];" vertex="1" connectable="0" parent="kRPh3oYMZlDsI1UbofoG-64">
          <mxGeometry x="0.4077" y="-3" relative="1" as="geometry">
            <mxPoint as="offset" />
          </mxGeometry>
        </mxCell>
      </root>
    </mxGraphModel>
  </diagram>
</mxfile>
